<svg xmlns="http://www.w3.org/2000/svg" width="69.093" height="69.093" viewBox="0 0 69.093 69.093">
  <path id="icons8-adobe-photoshop_1_" data-name="icons8-adobe-photoshop (1)" d="M10.281,4A6.279,6.279,0,0,0,4,10.281V66.812a6.279,6.279,0,0,0,6.281,6.281H66.812a6.279,6.279,0,0,0,6.281-6.281V10.281A6.279,6.279,0,0,0,66.812,4Zm6.281,18.819H29.057c6.184,0,10.415,4.23,10.415,10.477,0,6.14-4.386,10.348-10.655,10.348H22.1V53.8H16.562ZM22.1,27.456V39.05h5.478c3.951,0,6.269-2.061,6.269-5.754,0-3.8-2.259-5.839-6.25-5.839Zm29.658,2.38c5.581,0,9.085,2.47,9.471,6.741h-5c-.386-1.652-1.957-2.7-4.447-2.7-2.425,0-4.251,1.163-4.251,2.859,0,1.332,1.116,2.147,3.478,2.68l4.14.945c4.488,1.008,6.569,2.943,6.569,6.4,0,4.513-4.144,7.52-10,7.52s-9.553-2.538-9.962-6.809h5.263c.515,1.74,2.164,2.773,4.827,2.773,2.682,0,4.551-1.18,4.551-2.92,0-1.332-1.006-2.172-3.239-2.668l-4.165-.963c-4.51-1.03-6.631-3.113-6.631-6.655C42.362,32.779,46.219,29.836,51.759,29.836Z" transform="translate(-4 -4)" fill="#03414d"/>
</svg>
