<svg xmlns="http://www.w3.org/2000/svg" width="69.093" height="69.774" viewBox="0 0 69.093 69.774">
  <g id="Groupe_41" data-name="Groupe 41" transform="translate(-723.851 -2021.226)">
    <g id="Groupe_19" data-name="Groupe 19" transform="translate(723.851 2021.226)">
      <path id="Tracé_68" data-name="Tracé 68" d="M6.717,0H62.376a6.717,6.717,0,0,1,6.717,6.717V62.376a6.717,6.717,0,0,1-6.717,6.717H6.717A6.717,6.717,0,0,1,0,62.376V6.717A6.717,6.717,0,0,1,6.717,0Z" transform="translate(0 0)" fill="#03414d"/>
      <g id="Groupe_18" data-name="Groupe 18" transform="translate(0 3.036)">
        <g id="Adobe_XD_CC_icon" transform="translate(0 0)">
          <path id="Tracé_66" data-name="Tracé 66" d="M66.826,73.319h-45.6A11.012,11.012,0,0,1,10,62.579V20.741A11.012,11.012,0,0,1,21.229,10H66.795A10.992,10.992,0,0,1,78.024,20.741V62.549A10.97,10.97,0,0,1,66.826,73.319Z" transform="translate(-10 -10)" fill="#03414d"/>
          <g id="Groupe_17" data-name="Groupe 17" transform="translate(11.515 13.877)">
            <path id="Tracé_67" data-name="Tracé 67" d="M60.127,72.987,68.69,89.441c.153.245.061.489-.184.489H63.185a.6.6,0,0,1-.642-.4C60.586,85.5,58.6,81.459,56.549,77.116h-.061c-1.835,4.1-3.854,8.41-5.811,12.448a.587.587,0,0,1-.551.336H45.08c-.306,0-.336-.245-.184-.428l8.38-15.965-8.1-16.148a.247.247,0,0,1,.184-.428h5.26a.482.482,0,0,1,.551.336c1.927,4.037,3.884,8.2,5.719,12.264h.061C58.72,65.494,60.677,61.3,62.574,57.3c.153-.245.245-.4.551-.4h4.924c.245,0,.336.184.183.428Zm10.062,4.985c0-7.126,4.74-12.692,12.264-12.692a13.562,13.562,0,0,1,1.59.061v-8.1a.306.306,0,0,1,.306-.306h4.832c.245,0,.306.092.306.245V85.251a21.784,21.784,0,0,0,.153,3c0,.183-.061.245-.245.336a18.218,18.218,0,0,1-7.829,1.774C74.929,90.389,70.189,86.291,70.189,77.972Zm13.854-7.829a4.625,4.625,0,0,0-1.774-.306c-3.854,0-6.545,2.967-6.545,7.891,0,5.627,2.753,7.891,6.208,7.891a5.77,5.77,0,0,0,2.11-.336Z" transform="translate(-44.806 -56.9)" fill="#03414d"/>
          </g>
        </g>
      </g>
    </g>
    <text id="Xd" transform="translate(732 2026)" fill="#fff" font-size="46" font-family="MyriadPro-Semibold, Myriad Pro" font-weight="600"><tspan x="0" y="45">Xd</tspan></text>
  </g>
</svg>
