<svg xmlns="http://www.w3.org/2000/svg" width="69.093" height="69.093" viewBox="0 0 69.093 69.093">
  <path id="icons8-adobe-illustrator_1_" data-name="icons8-adobe-illustrator (1)" d="M10.281,4A6.279,6.279,0,0,0,4,10.281V66.812a6.279,6.279,0,0,0,6.281,6.281H66.812a6.279,6.279,0,0,0,6.281-6.281V10.281A6.279,6.279,0,0,0,66.812,4Zm42.9,16.482a2.962,2.962,0,1,1,0,5.888,2.962,2.962,0,1,1,0-5.888ZM28.475,22.7H34.7L45.711,53.679H39.767L37.148,45.76h-11.4l-2.668,7.919h-5.6Zm2.809,5.9L27.039,41.374H35.86L31.652,28.6Zm19.261,1.595h5.3V53.679h-5.3Z" transform="translate(-4 -4)" fill="#03414d"/>
</svg>
