<svg xmlns="http://www.w3.org/2000/svg" width="51.444" height="41.806" viewBox="0 0 51.444 41.806">
  <path id="icons8-twitter" d="M51.385,10.565a21.113,21.113,0,0,1-6.066,1.664,10.581,10.581,0,0,0,4.643-5.838,21.192,21.192,0,0,1-6.7,2.558,10.559,10.559,0,0,0-17.982,9.626A29.968,29.968,0,0,1,3.522,7.546a10.577,10.577,0,0,0,3.268,14.1,10.545,10.545,0,0,1-4.783-1.323v.132A10.569,10.569,0,0,0,10.47,30.8a10.564,10.564,0,0,1-2.778.369A10.167,10.167,0,0,1,5.7,30.98a10.578,10.578,0,0,0,9.859,7.333A21.157,21.157,0,0,1,2.455,42.828,20.764,20.764,0,0,1-.059,42.68a29.82,29.82,0,0,0,16.178,4.743c19.413,0,30.03-16.082,30.03-30.026,0-.457-.012-.918-.028-1.367A21.455,21.455,0,0,0,51.385,10.565Z" transform="translate(0.059 -5.617)" fill="#fff"/>
</svg>
