<svg xmlns="http://www.w3.org/2000/svg" width="44" height="35.756" viewBox="0 0 44 35.756">
  <path id="icons8-twitter" d="M43.941,9.849a18.058,18.058,0,0,1-5.188,1.423,9.05,9.05,0,0,0,3.971-4.993A18.126,18.126,0,0,1,36.99,8.467,9.031,9.031,0,0,0,21.61,16.7,25.632,25.632,0,0,1,3,7.267,9.047,9.047,0,0,0,5.8,19.324a9.019,9.019,0,0,1-4.091-1.132v.113a9.04,9.04,0,0,0,7.239,8.854,9.035,9.035,0,0,1-2.376.315,8.7,8.7,0,0,1-1.7-.165A9.048,9.048,0,0,0,13.3,33.582a18.1,18.1,0,0,1-11.21,3.861,17.76,17.76,0,0,1-2.15-.127,25.505,25.505,0,0,0,13.837,4.057c16.6,0,25.685-13.755,25.685-25.681,0-.391-.01-.785-.024-1.169A18.351,18.351,0,0,0,43.941,9.849Z" transform="translate(0.059 -5.617)" fill="#03414d"/>
</svg>
