<svg id="youtube" xmlns="http://www.w3.org/2000/svg" width="44" height="44" viewBox="0 0 44 44">
  <path id="Tracé_54" data-name="Tracé 54" d="M224.113,216.282l7.156-4.122-7.156-4.122Zm0,0" transform="translate(-204.853 -190.161)" fill="#03414d"/>
  <path id="Tracé_55" data-name="Tracé 55" d="M22,0A22,22,0,1,0,44,22,22,22,0,0,0,22,0ZM35.747,22.023a36.31,36.31,0,0,1-.566,6.613,3.445,3.445,0,0,1-2.423,2.423c-2.151.566-10.757.566-10.757.566s-8.583,0-10.757-.589a3.445,3.445,0,0,1-2.423-2.423A36.151,36.151,0,0,1,8.253,22a36.286,36.286,0,0,1,.566-6.613,3.515,3.515,0,0,1,2.423-2.446C13.394,12.375,22,12.375,22,12.375s8.606,0,10.757.589a3.445,3.445,0,0,1,2.423,2.423,34.458,34.458,0,0,1,.566,6.635Zm0,0" fill="#03414d"/>
</svg>
