<svg xmlns="http://www.w3.org/2000/svg" xmlns:xlink="http://www.w3.org/1999/xlink" width="738.666" height="503.374" viewBox="0 0 738.666 503.374">
  <defs>
    <linearGradient id="linear-gradient" x1="0.5" y1="1" x2="0.5" gradientUnits="objectBoundingBox">
      <stop offset="0" stop-color="gray" stop-opacity="0.251"/>
      <stop offset="0.535" stop-color="gray" stop-opacity="0.122"/>
      <stop offset="1" stop-color="gray" stop-opacity="0.102"/>
    </linearGradient>
  </defs>
  <g id="undraw_Designer_by46_2_" data-name="undraw_Designer_by46 (2)" transform="translate(0 0)">
    <path id="Tracé_36" data-name="Tracé 36" d="M250.609,644.085c-5.311,20.225-23.921,32.864-23.921,32.864s-10-20.152-4.688-40.376,23.921-32.864,23.921-32.864S255.919,623.861,250.609,644.085Z" transform="translate(-139.719 -235.145)" fill="#3f3d56"/>
    <path id="Tracé_37" data-name="Tracé 37" d="M244.308,646.113c-14.875,14.7-16.539,37.13-16.539,37.13s22.453-1.393,37.328-16.089,16.539-37.13,16.539-37.13S259.183,631.416,244.308,646.113Z" transform="translate(-141.474 -241.45)" fill="#03414d"/>
    <rect id="Rectangle_24" data-name="Rectangle 24" width="81.297" height="34.595" rx="15.198" transform="translate(51.747 435.883)" fill="#03414d"/>
    <g id="Groupe_10" data-name="Groupe 10" transform="translate(618.591 401.319)" opacity="0.7">
      <path id="Tracé_38" data-name="Tracé 38" d="M990.13,659.25V646.785H927.8v57.653a12.154,12.154,0,0,0,12.154,12.154h38.02a12.154,12.154,0,0,0,12.154-12.154V691.661a16.205,16.205,0,1,0,0-32.41Zm0,26.178V665.483a9.972,9.972,0,1,1,0,19.945Z" transform="translate(-927.805 -646.785)" fill="url(#linear-gradient)"/>
    </g>
    <path id="Tracé_39" data-name="Tracé 39" d="M1002.477,665.744a14.8,14.8,0,1,0,14.8,14.8A14.8,14.8,0,0,0,1002.477,665.744Zm0,23.9a9.105,9.105,0,1,1,9.105-9.105,9.105,9.105,0,0,1-9.105,9.105Z" transform="translate(-323.562 -250.009)" fill="#03414d"/>
    <path id="Tracé_40" data-name="Tracé 40" d="M1002.477,665.744a14.8,14.8,0,1,0,14.8,14.8A14.8,14.8,0,0,0,1002.477,665.744Zm0,23.9a9.105,9.105,0,1,1,9.105-9.105,9.105,9.105,0,0,1-9.105,9.105Z" transform="translate(-323.562 -250.009)" opacity="0.1"/>
    <path id="Tracé_41" data-name="Tracé 41" d="M818.016,531.776h56.908V588.1a7.414,7.414,0,0,1-7.414,7.414H825.43a7.414,7.414,0,0,1-7.414-7.414Z" transform="translate(-196.011 -127.423)" fill="#03414d"/>
    <rect id="Rectangle_25" data-name="Rectangle 25" width="738.666" height="25.04" transform="translate(0 468.09)" fill="#e0e0e0"/>
    <g id="Groupe_11" data-name="Groupe 11" transform="translate(236.021 0)" opacity="0.7">
      <path id="Tracé_42" data-name="Tracé 42" d="M674.518,419.553c-7.917-28.736-52.8-49.72-86.57-54.373,0-.212.016-.422.016-.635v-24.6l.109-.038v-.932a84.356,84.356,0,0,0,50.954-53.4,91.142,91.142,0,0,0,5.437-11.722c3.605-1.313,6.328-7.258,6.328-14.4a25.14,25.14,0,0,0-1.017-7.22,92.36,92.36,0,0,0,.676-10.964A91.382,91.382,0,0,0,620.265,173.3a17.836,17.836,0,0,0,.285-4.469c-.764-11.807-13.375-19.828-25.194-20.364a24.941,24.941,0,0,0,4.206-26.337c-7.536,10.979-23.008,12.147-36.325,12.233,5.746-2.225,8.332-10.187,4.99-15.364-13.918,18.655-41.049,22.11-57.6,38.471a48.56,48.56,0,0,0-8.957,12.217,91.429,91.429,0,0,0-34.46,71.578,92.422,92.422,0,0,0,.663,10.865,25.066,25.066,0,0,0-1.049,7.319c0,7.176,2.748,13.139,6.378,14.415a91.171,91.171,0,0,0,5.461,11.761,84.339,84.339,0,0,0,50.6,53.215v25.7c0,.2.011.393.015.59-33.9,4.573-79.14,25.722-86.986,54.69-6.776,25.015-14.009,52.488-17.608,68.618,30.847,21.675,95.575,34.4,136.14,34.4,38.541,0,101.536-11.487,131.475-31.224C689.05,473.9,681.589,445.218,674.518,419.553Z" transform="translate(-424.678 -119)" fill="url(#linear-gradient)"/>
    </g>
    <path id="Tracé_43" data-name="Tracé 43" d="M562.225,592.5c37.18,0,97.948-11.081,126.83-30.121-3.128-17.1-10.326-44.762-17.147-69.52-8.687-31.531-63.513-53.391-96.219-53.391H544.172c-32.807,0-87.712,21.986-96.29,53.653-6.537,24.132-13.514,50.633-16.986,66.193C460.654,580.22,523.094,592.5,562.225,592.5Z" transform="translate(-190.146 -195.789)" fill="#03414d"/>
    <circle id="Ellipse_11" data-name="Ellipse 11" cx="88.384" cy="88.384" r="88.384" transform="translate(281.775 36.697)" fill="#3e3e3e"/>
    <path id="Tracé_44" data-name="Tracé 44" d="M449.291,261.311h56.633v45.306a28.316,28.316,0,0,1-28.316,28.316h0a28.316,28.316,0,0,1-28.316-28.316V261.311Z" transform="translate(-107.658 -62.615)" opacity="0.1"/>
    <path id="Tracé_45" data-name="Tracé 45" d="M457.414,258.553H497.8a8.123,8.123,0,0,1,8.123,8.123v37.183a28.316,28.316,0,0,1-28.316,28.316h0a28.316,28.316,0,0,1-28.316-28.316V266.676A8.123,8.123,0,0,1,457.414,258.553Z" transform="translate(-107.658 -61.954)" fill="#fda57d"/>
    <path id="Tracé_46" data-name="Tracé 46" d="M563.709,406.291a81.506,81.506,0,0,0,56.632.157v-6.957H563.709Z" transform="translate(-221.971 -186.21)" opacity="0.1"/>
    <circle id="Ellipse_12" data-name="Ellipse 12" cx="81.173" cy="81.173" r="81.173" transform="translate(288.986 61.526)" fill="#fda57d"/>
    <path id="Tracé_47" data-name="Tracé 47" d="M525.046,203.129s34.21,69.44,130.711,29.1L633.291,197l-39.826-14.3Z" transform="translate(-212.706 -134.265)" opacity="0.1"/>
    <path id="Tracé_48" data-name="Tracé 48" d="M525.046,201.786s34.21,69.44,130.711,29.1l-22.466-35.231-39.826-14.3Z" transform="translate(-212.706 -133.943)" fill="#3e3e3e"/>
    <path id="Tracé_49" data-name="Tracé 49" d="M524.113,184.4a46.893,46.893,0,0,1,11.623-18.905c15.969-15.783,42.142-19.115,55.568-37.111,3.224,4.994.73,12.674-4.813,14.821,12.846-.083,27.771-1.209,35.041-11.8a24.06,24.06,0,0,1-4.057,25.406c11.4.518,23.566,8.255,24.3,19.645.491,7.588-4.267,14.772-10.5,19.123s-13.779,6.349-21.2,7.986C588.4,208.343,509.969,228.373,524.113,184.4Z" transform="translate(-212.077 -121.248)" fill="#3e3e3e"/>
    <path id="Tracé_50" data-name="Tracé 50" d="M656.688,307.6h-2.152l-41.868,37.273c-40.336-18.892-69.951,0-69.951,0l-43.911-35.741-4.428.556A81.166,81.166,0,1,0,656.7,307.6Zm-81.294,51.57c-15.791,0-28.593-3.2-28.593-7.148s12.8-7.148,28.593-7.148,28.593,3.2,28.593,7.148S591.185,359.172,575.394,359.172Z" transform="translate(-205.358 -164.192)" fill="#3e3e3e"/>
    <ellipse id="Ellipse_13" data-name="Ellipse 13" cx="7.551" cy="14.158" rx="7.551" ry="14.158" transform="translate(281.403 128.464)" fill="#fda57d"/>
    <ellipse id="Ellipse_14" data-name="Ellipse 14" cx="7.551" cy="14.158" rx="7.551" ry="14.158" transform="translate(443.771 128.464)" fill="#fda57d"/>
    <g id="Groupe_12" data-name="Groupe 12" transform="translate(212.267 287.2)" opacity="0.7">
      <rect id="Rectangle_26" data-name="Rectangle 26" width="314.132" height="180.891" rx="14.5" fill="url(#linear-gradient)"/>
    </g>
    <rect id="Rectangle_27" data-name="Rectangle 27" width="302.751" height="177.553" rx="26.835" transform="translate(217.958 290.537)" fill="#535461"/>
    <circle id="Ellipse_15" data-name="Ellipse 15" cx="10.243" cy="10.243" r="10.243" transform="translate(359.09 369.071)" fill="#fff"/>
    <rect id="Rectangle_28" data-name="Rectangle 28" width="676.068" height="10.243" transform="translate(31.299 493.13)" fill="#e0e0e0"/>
    <rect id="Rectangle_29" data-name="Rectangle 29" width="676.068" height="3.414" transform="translate(31.299 493.13)" opacity="0.1"/>
    <path id="Tracé_51" data-name="Tracé 51" d="M990.168,650.776v52.64a11.1,11.1,0,0,1-11.1,11.1h5.691a11.1,11.1,0,0,0,11.1-11.1v-52.64Z" transform="translate(-321.499 -246.423)" opacity="0.1"/>
    <path id="Tracé_52" data-name="Tracé 52" d="M946.2,594.52a3.323,3.323,0,0,0-2.513,1.276c-.747,1.353.606,2.879,1.841,3.809,2.28,1.718,4.684,3.405,6.234,5.8s2.037,5.744.343,8.042c-2.213,3-7.491,3.646-8,7.339-.328,2.371,1.721,4.394,3.8,5.583,5.126,2.936,11.734,3.72,15.447,8.314,1.536-3.158,4.972-4.984,8.4-5.764s6.983-.721,10.455-1.25c1.121-.171,2.383-.513,2.885-1.53.971-1.97-1.8-4.332-.841-6.31.727-1.505,2.861-1.388,4.42-1.991,2.538-.981,3.585-4.248,2.864-6.872s-2.755-4.675-4.9-6.357c-5.767-4.531-12.7-7.2-19.715-9.113-3.262-.891-7.091-2.29-10.479-2.425C953.172,592.944,949.442,593.966,946.2,594.52Z" transform="translate(-312.97 -232.594)" fill="#eee"/>
  </g>
</svg>
