<svg id="Calque_1" data-name="Calque 1" xmlns="http://www.w3.org/2000/svg" viewBox="0 0 2070 1868.75"><defs><style>.cls-1{fill:#e5f8f6;}.cls-2{fill:#03414d;}</style></defs><title>Plan de travail 1</title><g id="Groupe_45" data-name="Groupe 45"><g id="Groupe_23" data-name="Groupe 23"><path id="wave_2_2" data-name="wave 2 2" class="cls-1" d="M0,516.89l69,9c69,9.64,207,26.55,345,36.19,138,9,276,9,414-18.1s276-81.16,414-81.16,276,54.11,414,45.15c138-9.64,276-80.66,345-117.35l69-36V787.44H0Z"/></g><g id="Groupe_44" data-name="Groupe 44"><rect id="Rectangle_48" data-name="Rectangle 48" class="cls-1" y="751.56" width="2070" height="1565.44"/><path id="wave_2_3" data-name="wave 2 3" class="cls-2" d="M0,1273.8l69,19.81c69,21.3,207,58.68,345,80,138,19.81,276,19.81,414-40s276-179.4,414-179.4,276,119.6,414,99.79c138-21.3,276-178.28,345-259.38L2070,915v956.81H0Z"/></g></g></svg>