<svg xmlns="http://www.w3.org/2000/svg" width="67" height="43.068" viewBox="0 0 67 43.068">
  <g id="Icon_ionic-ios-eye" data-name="Icon ionic-ios-eye" transform="translate(-2.252 -7.875)">
    <path id="Tracé_466" data-name="Tracé 466" d="M35.716,7.875c-12.023,0-21.5,7.567-32.84,19.934a2.364,2.364,0,0,0-.015,3.185C12.567,41.717,21.12,50.943,35.716,50.943c14.416,0,25.228-11.619,32.914-20.039a2.346,2.346,0,0,0,.075-3.1C60.869,18.313,50.027,7.875,35.716,7.875Zm.658,34.978A13.459,13.459,0,1,1,49.19,30.037,13.464,13.464,0,0,1,36.374,42.853Z" transform="translate(0)" fill="#03414d"/>
    <path id="Tracé_467" data-name="Tracé 467" d="M23.069,16.042a7.026,7.026,0,0,1,.464-2.527c-.15,0-.3-.015-.464-.015a9.57,9.57,0,1,0,9.571,9.571c0-.194-.015-.389-.015-.583a6.631,6.631,0,0,1-2.722.583A6.943,6.943,0,0,1,23.069,16.042Z" transform="translate(12.676 6.338)" fill="#03414d"/>
  </g>
</svg>
