<svg id="Calque_1" data-name="Calque 1" xmlns="http://www.w3.org/2000/svg" viewBox="0 0 889 589"><defs><style>.cls-1{fill:#e5f8f6;}.cls-2{fill:none;stroke:#03414d;stroke-linecap:round;stroke-width:20px;}.cls-3{fill:#03414c;}.cls-4{fill:#1b767f;}.cls-5{fill:#042f33;}.cls-6{fill:#081c1e;}.cls-7{fill:#a4c6c2;}.cls-8{fill:#73dfd0;}.cls-9{fill:#06535b;}.cls-10{fill:#e8e5e7;}.cls-11{fill:#472c3b;}</style></defs><title>Plan de travail 1</title><g id="Rectangle_71" data-name="Rectangle 71"><rect class="cls-1" width="889" height="589" rx="67"/><rect class="cls-2" x="10" y="10" width="869" height="569" rx="57"/></g><path id="Tracé_247" data-name="Tracé 247" class="cls-3" d="M579.84,390.29v56.5l13-3.89-5.38-52.61Z"/><path id="Tracé_248" data-name="Tracé 248" class="cls-3" d="M391.67,412.58l4.21,1.58.54,2.88,1.83-1.88,85.17.09,5-2.34-2,17s-2.46,3-3.75,3l-33.21-.12-52.33.45-7.79-6.4v-10Z"/><path id="Tracé_249" data-name="Tracé 249" class="cls-3" d="M293.55,389.41,283.42,441.7l16.66,3.59V389.41Z"/><path id="Tracé_250" data-name="Tracé 250" class="cls-4" d="M388.09,377.1l104.12-.19-.37,5.57L385.9,384.4Z"/><path id="Tracé_251" data-name="Tracé 251" class="cls-3" d="M304,237.64l-9.12,5.61-5.13,18.66-5.66,43.17-4.25,33.33s5,12,14.41,19.09c8.2,6.13,20.67,7.17,24.59,10.08,5.16-.94,11,4.65,16.16,3.71l73,7.62,81-3.16L552.22,369l32.48-8.56,15.52-25.35-5.17-56.3-8.5-34.13-13-7-43.93-3.23-53.23-.5-55.75-.75-50.42.7-51.83,2.67Z"/><path id="Tracé_252" data-name="Tracé 252" class="cls-5" d="M481.69,415.84H398c-.36-1.66-.62-3.47-3-2h-3.28c-.65-3.15,1.78-5.73,5.19-4,2.85,1.45,5.76.79,9,.79,22.75-.05,45.64.83,68.4.87a19.2,19.2,0,0,0,9-2.21c3.42-1.74,5,1.41,4.36,4.55-.65.39-2.3.79-3,1.18a2.08,2.08,0,0,0-2.88.58C481.78,415.68,481.73,415.76,481.69,415.84Z"/><path id="Tracé_253" data-name="Tracé 253" class="cls-6" d="M602.76,317.89c1.21,11.83.46,23.23-6.28,33.64-1.74,2.68.2,5.86.6,8.68,4.11,28.49,8.49,57,12.9,85.4.32,2.06.88,4-.91,5.48-2,1.73-4,.54-6.05-.2-5-1.84-9.65-5.06-15.63-3.36-2.94.84-4.22,1.88-4.07,5,.22,4.32,0,8.66.07,13,.12,5.6-.58,11-4.91,16.41h24.43a38.7,38.7,0,0,1,5.49.16,3.17,3.17,0,0,1,2.83,3.48v.06a3.12,3.12,0,0,1-2.92,3.29h-.15c-1.32.09-2.66.06-4,.06-21.67,0-43.33.1-65,0a6.39,6.39,0,0,0-6.07,3.05c-6.62,9.43-19.59,9.5-26.21.09-1.86-2.65-3.73-3.14-6.57-3.14q-60.49.11-121,0c-2.85,0-4.7.53-6.55,3.16-6.62,9.4-19.6,9.31-26.21-.13-1.7-2.42-3.4-3-6.09-3-25.83.05-51.66,0-77.5,0h-3.49c-2.56.11-4.47-.94-4.39-3.58s2.09-3.5,4.57-3.49h41.25c-6.34-8.47-4.32-17.82-4.56-26.82-.18-6.76-3.71-9.64-10.34-7.76-3.47,1-6.79,2.54-10.19,3.82-4.82,1.82-7,.12-6.18-5q6.93-45.88,13.92-91.77c.15-1,.41-1.95-.22-2.87-8.57-12.62-7.32-26.44-5.22-40.5,2.79-18.6,5.27-37.25,7.73-55.9,1.57-11.92,10-20.47,22.07-21.33,11.8-.84,23.63-1.25,35.45-1.71,2.45-.1,4.25-.38,4.42-3.33,0-.76.5-2.1.92-2.16,4.82-.72,6.1-5.67,9.66-7.86a12.31,12.31,0,0,1,16,1.94c2.09,2.19,3.32,1.72,5.23.23,3.36-2.61,5.57-6.17,8.06-9.49,27.21-36.36,77.18-36.4,104.42-.09,2.69,3.59,5,7.45,8.84,10.11,1.56,1.1,2.45,1.22,4.08-.33,6.93-6.57,15-5.78,20.44,1.82.9,1.28,1.55,2.39,3.35,2.44,1.39,0,2.88.91,2.92,2.31.14,4.72,3.34,4.33,6.57,4.46,11,.44,22,.84,33,1.6,12.72.88,21.21,9.27,22.71,21.78.57,4.79,1.4,9.55,2.1,14.33a10.36,10.36,0,0,0,.87,5c.08,5.73,1.23,11.33,2.16,16.95a10.71,10.71,0,0,0,.82,5c.16,5.73,1.24,11.33,2.2,17A6,6,0,0,0,602.76,317.89Zm-216.95-92-1,1a1.83,1.83,0,0,0-2,1l-1,1a4.51,4.51,0,0,0-4.23,1.8c2,.3,3.34-.24,4.22-1.81l1-1a1.9,1.9,0,0,0,2-1l1-1c.33-.33.65-.67,1-1l1-1c.34-.33.69-.65,1-1l.42-.55-.48.48-1,1-1,1Zm5-6,1-1a1.2,1.2,0,0,0,.39-.2c.06-.06,0-.22,0-.33-.15.16-.3.33-.46.49l-1,1-.41.53Zm88-12-1-1a3.16,3.16,0,0,0-3-3,1.86,1.86,0,0,0-2-1c0-.84-.31-1.47-1.25-1.53-.11,0-.33.2-.32.29,0,1,.79,1.14,1.55,1.26a1.86,1.86,0,0,0,2,1c.14,1.86,1.3,2.7,3,3l1,1,1,1,1,1a2,2,0,0,0,2,2l.46.49-.41-.53a2,2,0,0,0-2-2l-1-1Zm7,8a1.12,1.12,0,0,0,.14.4c.06.07.21.06.32.09l-.43-.53-1-1a1.48,1.48,0,0,0-.14-.42c-.06-.07-.21-.06-.32-.08l.42.53Zm-86-7,1-1c.33-.33.67-.66,1-1,1.7-.3,2.86-1.14,3-3a1.86,1.86,0,0,0,2-1c.76-.12,1.51-.27,1.55-1.26a.47.47,0,0,0-.32-.29c-.94.06-1.24.69-1.25,1.53a1.86,1.86,0,0,0-2,1,3.18,3.18,0,0,0-3,3l-1,1-1,1-1,1a2,2,0,0,0-2,2l-.41.53.46-.49a1.94,1.94,0,0,0,2-1.88v-.12Zm88,10,1,1a1.88,1.88,0,0,0,.14.42c.06.07.21.06.32.08l-.42-.53-1-1a1.48,1.48,0,0,0-.14-.42c-.06-.07-.21-.06-.32-.08Zm-93-4-1,1-.42.54.47-.48,1-1,.41-.53Zm98,10-1-1a13.48,13.48,0,0,0-1-1l-.48-.49.41.55,1,1c.33.34.66.67,1,1l1,1,1,1a1.9,1.9,0,0,0,2,1l1,1c1,1.52,2.16,2.32,4.26,1.51a5.65,5.65,0,0,0-4.27-1.5l-1-1a1.83,1.83,0,0,0-2-1l-1-1Zm82,249a1.82,1.82,0,0,0,1-1.95q.11-48.49.22-97a6.07,6.07,0,0,0,.25-6.12c-.5-1.06-1.76.06-2.69.1-2.89.12-3,3.52-4.66,4.27s-3.06-3.55-5.87-1.77a2.61,2.61,0,0,1-.94.31c-4.05.73-8.1,2-12.17,2-5.24.09-6.68,2.54-6.08,7.15-1.34,1.88-2.11,4.36-4.45,5.23-3.12,1.16-3.48,3.42-3.47,6.33.08,25.29,0,50.58.07,75.88,0,1.42-.71,3.52.87,4.12,7.91,3-.44,3-.75,4.39-.83,3.84.49,5.33,4.61,5.16,7.43-.3,14.88.08,22.32-.14,5.47-.15,9.86-2.36,11.75-8Zm-269.87,0h0c1.89,5.64,6.28,7.85,11.75,8,7.44.22,14.89-.15,22.32.14,4.12.17,5.44-1.32,4.61-5.16-3-2.6.25-5.06.24-7.62-.15-25.93-.1-51.86-.09-77.78,0-1.88,0-3.74-2.15-4.55-2.88-1.08-4.24-3.6-5.73-6-.2-2.8.92-6.25-3.6-6.87s-9.24-1-13.65-2.21c-5.13-1.45-6.67.2-5.84,5.09-1.57,1.57-2.61,1.16-3.22-.86,0-2.46,1.5-5.46-2.11-6.68-1.28-.43-3.08-1.89-4-.47a5.55,5.55,0,0,0,.25,6v28.85q.1,34.06.24,68.14a1.82,1.82,0,0,0,1,2Zm88.19-59.93c-.06,1.66-.17,3.31-.17,5,0,10.09,1.89,12,11.76,12,21.94,0,43.89-.3,65.82.1,16.07.3,16.94-2.14,16.08-17.12.65-3.13,0-4.42-3.38-2.68-2.85,1.45-6,1.65-9.23,1.65q-34.12-.06-68.27,0c-3.2,0-6.37-.2-9.22-1.65C393.07,409.5,392.44,410.76,393.09,413.91Zm-2.3-27.07c-.6,12.3,3.88,18.83,13.62,18.9,23.59.18,47.18.14,70.77,0,8.2-.05,13.62-5.7,13.83-13.86,0-2-.12-4-.18-6,.28-6.24.25-6.21-5.81-5.56-2.8.3-5.64.43-8.46.48-24.78.39-49.56.43-74.34-.13-2.61-.05-5.35-.64-6,2.83-2.08-.37-.57-3.31-3.46-3ZM515.1,369c1.45-2.82.41-5.82.66-8.73.13-1.62-.67-2.37-2.33-2.43-2-.07-2.64.88-2.58,2.7.09,2.47.11,4.94.16,7.42q-.08,57.21-.09,114.44c0,5.86,4,9.72,9.28,9.58,5-.15,8.69-4,8.69-9.61q0-57.22-.12-114.44c.05-2.45.07-4.9.15-7.35.05-1.75-.53-2.77-2.5-2.74s-2.54,1.16-2.42,2.85c.18,2.41-.57,4.89.52,7.24.49,2.9,1.45,5.92-1.76,8a4.76,4.76,0,0,1-5.55.06c-2.67-1.72-2.71-4.26-2.11-7Zm-164.16-2q-.09,57.93-.14,115.86a8.77,8.77,0,0,0,8.46,9.09c.23,0,.47,0,.71,0,5-.12,8.78-3.93,8.78-9.56q0-57.68-.12-115.36c.05-2.3.1-4.6.17-6.91,0-1.7-.86-2.3-2.45-2.29s-2.49.62-2.44,2.31q.09,3.45.19,6.91c.51,3.14,2.06,6.47-1.57,8.87a4.74,4.74,0,0,1-5.54,0c-3.76-2.37-2-5.75-1.62-8.88.1-2.29.21-4.59.28-6.88.06-1.64-.79-2.36-2.41-2.37s-2.5.58-2.46,2.28c.06,2.37.11,4.66.16,7ZM503.73,476.84c-.7-1.31-2-.88-3.1-1.06-.92-.16-1.6-.61-1.54-1.59a1.27,1.27,0,0,1,1.34-1.2h0c4,.19,3.39-2.64,3.39-5.09,0-24.59-.17-49.19.13-73.79.07-5.44-1.83-8.19-6.46-9.25a159.25,159.25,0,0,0-3.74,42c-3.17,8.13-9,11.86-17.79,11.17-5.13-.4-10.32.14-15.46-.14-3.74-.2-5.67,1.13-5.91,4.87-4.15,4.29-8.15,8.42-15,8.33-6.65-.09-10.46-4.21-14.52-8.33-.24-3.74-2.17-5.07-5.91-4.87-5.14.28-10.33-.26-15.46.14-8.84.69-14.62-3-17.79-11.17a160.62,160.62,0,0,0-3.84-42.44c-2.13,2.23-6.26,1.84-6.25,6.28.06,26.28,0,52.55.05,78.83,0,1.25-.31,2.69,1.47,3.28s5.18-1,5.06,1.46c-.16,3.19-4,.73-5.8,1.92a4.38,4.38,0,0,0-.66.7c-.73,3.88.72,5.14,4.77,5.13q59.13-.22,118.25,0C503,482,504.46,480.75,503.73,476.84Zm-219-140.67C285.88,344,290.22,349.94,296,355c10.13,8.93,23.11,9.45,35.46,11.74,1.41.26,3.89,1.59,4.32-1.51.31-2.24.39-4.48-2.93-4.45a1.62,1.62,0,0,1-1.79-1.41c-.11-1.43,1.08-1.56,2.05-1.43,2.86.39,2.86-1.43,2.76-3.38-.21-4.18,1.17-7.77,5-9.58,2.72-1.29,2.89-3.12,2.88-5.56-.06-10.49.08-21-.08-31.46-.06-4,1.42-5.84,5.51-5.77,7,.12,14,.1,21,0,4.24-.06,5.89,1.74,5.8,6-.21,10.48-.06,21-.07,31.46,0,2-.31,3.81,2.18,4.92,4.31,1.93,5.67,5.74,5.66,10.25,0,5,.11,10,.18,15-.61,2.77,1.16,2.91,3.18,3q52.8,2.64,105.59,0c2-.1,3.79-.24,3.18-3,.07-5.16.17-10.32.19-15.48,0-3.94,1.21-7.56,4.81-9.24,3-1.38,3.07-3.35,3.05-6-.08-10.33.11-20.67-.1-31-.09-4.38,1.68-6,5.87-6,6.83.09,13.66.13,20.49,0,4.22-.1,6,1.5,5.93,5.88-.2,10.5,0,21-.1,31.5,0,2.53.36,4.26,3,5.48a7.93,7.93,0,0,1,4.74,7.67c-.16,3.84.45,6.19,5,5.06.74-.19,1.82.06,1.73,1.18a2,2,0,0,1-1.22,1.33,8.28,8.28,0,0,1-2.91.57c-2.85,0-2.48,2-2.52,3.81-.07,2.63,1.63,2.52,3.35,2.22,9-1.52,18.25-2.22,26.72-5.93,11-4.79,18.63-12.61,21-24.79,2.15-5.69,1.27-11.51.51-17.24-2.75-20.6-5.76-41.18-8.5-61.78-1.38-10.35-6.81-15.85-17.26-16.43q-45.39-2.53-90.86-2.9c-56.46-.51-112.91-.27-169.31,2.92-9.75.55-15.46,6.33-16.72,15.91-2.4,18.3-5.12,36.56-7.49,54.87-1.07,8.28-3.3,16.48-.54,24.76ZM486.94,230.92c-11.13-18.08-24.8-31.08-47.16-31.08-22.53,0-36,13.27-47,31.08C424.22,230.43,455.47,230.44,486.94,230.92Zm42,98.57c0-3.66-.1-7.33,0-11,.09-2.43-.52-3.71-3.29-3.57-3.82.19-7.66.12-11.49,0-2.18-.06-3.41.39-3.37,3,.12,7.66,0,15.32,0,23,0,1.41.09,2.81,2,2.76,5.12-.13,11,1.74,15.13-.81,2.85-1.75.55-7.45.94-11.37A19.3,19.3,0,0,0,528.94,329.49Zm-160.13-.26c0-14.91,0-14.82-14.51-14.33-2.9.1-3.68,1.05-3.62,3.79.15,7.16.11,14.32,0,21.48,0,2.44.57,3.72,3.32,3.59,3.83-.16,7.67-.17,11.49,0,2.72.12,3.44-1.06,3.35-3.55C368.7,336.56,368.81,332.89,368.81,329.23ZM589.72,360.5c-3.46.67-3.92,2.4-3.47,5.21,2,12.29,3.78,24.61,5.66,36.91q2.72,17.73,5.53,35.43c.28,1.79.82,4.15,3.23,3.48,2.17-.6,1-2.79.75-4.3q-3.27-21.68-6.6-43.32ZM278,439.63c0,.29-.41,1.5.81,1.93a2.15,2.15,0,0,0,2.78-1.26.78.78,0,0,0,.05-.14,20.82,20.82,0,0,0,1.13-4.32c3.49-23,6.82-46,10.35-69,.4-2.58,1.45-5.69-2-6-2.41-.19-1.81,3.34-2.11,5.2C286.88,379,285,392,283,404.92,281.37,416.33,279.72,427.66,278,439.63ZM583.69,394.4l-.64.09v43c0,1.42-.59,4.08,2.29,2.9,1.73-.7,5.66,1.52,4.86-3.41C587.91,422.78,585.85,408.58,583.69,394.4Zm-287.07.11-.69.08c-2.11,14-4,27.93-6.45,41.82-.91,5.14,2.85,3.37,4.78,3.95,3.48,1,2.3-2,2.31-3.4C296.66,422.84,296.62,408.66,296.62,394.51Zm238.71-13.19c2.34-.43,2.7-1.74,2.71-3.05q.09-12.45,0-24.89c0-2.08-1.12-3.7-3.13-3.91a89.71,89.71,0,0,0-9.42-.23c-1,0-1.45.67-1.42,1.64s.71,1,1.36,1.08c1,.08,2,.07,3,.08,6.85.08,6.87.09,6.88,7,0,7.37,0,14.8,0,22.28Zm-191,.5V356.94c0-3.16.87-5,4.51-5,2.23,0,6.49,1.23,6.36-1.14-.18-3.39-4.3-1.48-6.63-1.57-6.07-.23-7,.82-7,6.74q-.06,10,0,19.91c0,2-.43,4.08,2.77,6Zm160.34-.38c0-8.41.11-16.39,0-24.36-.07-3.52,1-5.19,4.79-5.15,2.06,0,6,1.4,6-1.07,0-3.36-4-1-6.07-1.7a6.7,6.7,0,0,0-2,0c-3.93-.06-5.7,1.79-5.62,5.81.14,7.15,0,14.31.05,21.46-.05,1.91-.36,4.06,2.86,5ZM375,381.38c2.48-.57,2.89-2,2.89-3.52V353.41a3.82,3.82,0,0,0-3.55-4.06h-.06c-2.8-.3-5.64-.17-8.46-.19-1.12,0-2,.43-1.85,1.74S365,352,365.79,352a20.34,20.34,0,0,0,3.49,0c4.3-.53,6,1.16,5.78,5.61-.28,7.8-.07,15.62-.07,23.76Zm64.85,66.77A12.69,12.69,0,0,0,451,441.9c.65-1.12,2.29-2.59.7-3.73-1.32-.94-2.73,0-3.53,1.63a8.69,8.69,0,0,1-2.22,2.64c-4.49,3.81-10.41,2.93-14.28-2.25-1.07-1.43-2.17-3.21-3.8-2s.17,2.95,1,4.13a12.43,12.43,0,0,0,10.93,5.83Zm29.51-247.57c-14.21-12.67-47.8-11.4-59.66.7,20.45-11.2,40-11.12,59.67-.7Zm52.08,159.87v-10c0-1-.1-2.2-1.28-2.37-1.36-.2-1.5,1-1.51,2v20.45c0,1,0,2.23,1.42,2.13s1.35-1.31,1.36-2.28c0-3.28,0-6.6,0-9.93Zm-160.35.39h0v-11c0-.83-.2-1.74-1.29-1.76s-1.39.91-1.4,1.69q-.09,10.47,0,21c0,.93.24,2.2,1.61,2s1.14-1.44,1.15-2.41C361.08,367.13,361.07,364,361.07,360.84Zm84.52,77.33c-4.14-.15-7.57-.61-11.28.32,4.36,4.7,6.76,4.69,11.28-.35Zm-86-212.67c6.38,1,7.67.84,10-1.38-4.65-2.48-5.72-2.36-10,1.35ZM520,226c-3.82-4.33-6-4.51-10.27-1.09,3.25,1.71,6.53,1.16,10.23,1.06Z"/><path id="Tracé_254" data-name="Tracé 254" class="cls-7" d="M566.22,202.94a16.92,16.92,0,0,1-13-5.26q-18.68-18.44-37.11-37.09c-7.19-7.31-7.24-17.73.31-25.55,12-12.47,24.24-24.76,36.76-36.73,8.11-7.76,18.35-7.18,26.25.7q17.66,17.63,35.29,35.33c8.5,8.5,8.5,18.67-.05,27.24Q596.85,179.46,579,197.27C575.31,200.94,571.1,203.36,566.22,202.94Zm1.12-6.92c2.24.24,4.63-1.7,6.94-4q17.61-17.7,35.29-35.33c5.7-5.71,5.8-11.58.06-17.39q-17.55-17.76-35.31-35.3c-5.62-5.55-11.41-5.49-17.08.11q-17.76,17.55-35.3,35.31c-5.57,5.64-5.55,11.43,0,17.08,11.72,11.82,23.54,23.55,35.28,35.34A13.9,13.9,0,0,0,567.34,196Z"/><path id="Tracé_255" data-name="Tracé 255" class="cls-7" d="M293.86,218.93c-11.48,0-23-.1-34.45.06-3.4,0-4.68-.94-4.66-4.51q.19-34.2,0-68.41c0-3.72,1.59-5.13,5-5.13h67.91c3.53,0,5.14,1.75,5.13,5.24,0,22.8-.05,45.61,0,68.41,0,3.7-1.92,4.41-5.05,4.38C316.5,218.84,305.22,218.93,293.86,218.93Zm32-39c0-9.33-.09-18.66,0-28,0-3.05-1-4.06-4.06-4.05q-28,.15-56,0c-3,0-4.08,1-4.06,4.05q.15,28,0,56c0,3,1.05,4.06,4.07,4q28-.15,56,0c3,0,4.09-1,4-4.06-.07-9.32,0-18.65,0-28Z"/><path id="Tracé_256" data-name="Tracé 256" class="cls-7" d="M399.84,128.34c0,11.15-.11,22.3,0,33.44.06,4.53-1.81,6.22-6.27,6.18q-24.19-.18-48.41,0c-4.77,0-6.46-1.87-6.43-6.54q.19-32.7,0-65.39c0-4.52,1.8-6.22,6.26-6.18q24.7.2,49.41,0c4.19,0,5.52,1.48,5.44,5.56C399.71,106.37,399.84,117.36,399.84,128.34Zm-7,.46c0-9-.13-18,.07-27,.08-3.55-.74-5.06-4.67-5q-19,.33-38,0c-3.64,0-4.48,1.34-4.45,4.69q.18,27.48,0,55c0,3.63,1.32,4.5,4.68,4.46q19-.22,38,0c3.64,0,4.52-1.33,4.45-4.69-.2-9.13-.09-18.3-.09-27.42Z"/><path id="Tracé_257" data-name="Tracé 257" class="cls-7" d="M602.76,317.89a6,6,0,0,1-.74-4c10.22,0,8.71,1.09,8.79-8.08.09-9,0-9-11-8.88a10.71,10.71,0,0,1-.82-5h20.47c12.75,0,12.61,0,12.5-12.57,0-3.58-1.28-4.54-4.67-4.48-10.15.17-20.31.06-30.46.06a10.36,10.36,0,0,1-.87-5c4.76-.29,10.8,2.1,13.93-1.06,2.92-2.94.43-8.92,1-13.51.27-2.14-1.73-6,2-6,3.53,0,2.61,3.84,2.85,6.36.45,4.58-2.07,10.41,1.15,13.42,2.92,2.75,8.6.75,13.06.84,7.5.14,15,0,22.5.08a13.29,13.29,0,0,1,3.92.47,2.43,2.43,0,0,1,1.92,2.59c-.19,1.43-1.4,1.79-2.6,1.81-4.67.06-9.34.24-14,0-3.54-.18-5,.7-5,4.64,0,12.41-.16,12.41,12.17,12.41h14c1.92,0,4.58-.48,4.65,2.37s-2.57,2.52-4.52,2.52c-13.83,0-27.66.22-41.49-.06-4.6-.09-6.5,1.25-5.79,5.86a18.78,18.78,0,0,1,0,3c0,7.8,0,7.8,7.75,8.26,1.6.1,3.86-.25,3.71,2.14s-2.41,1.85-4,1.86Z"/><path id="Tracé_258" data-name="Tracé 258" class="cls-6" d="M234.5,489h-8a3.18,3.18,0,0,1-3.28-3.08v0a3.18,3.18,0,0,1,2.55-3.71,3.43,3.43,0,0,1,.56-.05c5.63-.19,11.28-.17,16.92,0a3.24,3.24,0,0,1,3.33,3.61,3.33,3.33,0,0,1-3.31,3.33l-.33,0h-8.46Z"/><path id="Tracé_259" data-name="Tracé 259" class="cls-6" d="M627.62,482c2.17,0,4.33-.09,6.49,0a3.4,3.4,0,0,1,3.55,3.23v.22a3.21,3.21,0,0,1-2.9,3.5h-.54c-4.49.08-9,0-13.48,0a3.27,3.27,0,0,1-3.54-3.4,3.31,3.31,0,0,1,3.08-3.54h.34C623,481.89,625.29,482,627.62,482Z"/><path id="Tracé_260" data-name="Tracé 260" class="cls-6" d="M647.7,489c-2.46.09-4.88-.14-4.93-3.32-.06-3.42,2.47-3.74,5.13-3.74,2.5,0,4.85.41,4.94,3.45C653,488.84,650.34,489.1,647.7,489Z"/><path id="Tracé_261" data-name="Tracé 261" class="cls-1" d="M425.07,442.74c4.06,4.12,7.87,8.24,14.52,8.33,6.86.09,10.86-4,15-8.33,7.76.06,15.51.17,23.27.16,10,0,15.9-6,15.89-16.06a159.87,159.87,0,0,1,3.74-41.95c4.63,1.06,6.53,3.81,6.46,9.25-.3,24.6-.13,49.2-.13,73.79,0,2.45.61,5.28-3.39,5.09a1.28,1.28,0,0,0-1.35,1.19h0c-.06,1,.62,1.43,1.54,1.59,1.09.18,2.4-.25,3.1,1.06H375.94a4.38,4.38,0,0,1,.66-.7c1.84-1.19,5.64,1.27,5.8-1.92.12-2.41-3.31-.88-5.06-1.46s-1.47-2-1.47-3.28q0-39.42-.05-78.83c0-4.44,4.12-4,6.25-6.28a160.62,160.62,0,0,1,3.84,42.44c0,10,5.92,16.05,15.89,16.06C409.56,442.91,417.32,442.84,425.07,442.74Zm-23.5,33.17c1.47-.11,3.58.26,3.66-1.56.08-2.17-2.14-1.39-3.42-1.42s-3.48-.64-3.58,1.37S400.31,475.69,401.57,475.91Zm11.1,0c1.26-.27,3.33.69,3.73-1.26s-1.59-1.74-2.76-1.66c-1.47.11-3.81-1-4.14,1.3-.23,1.55,1.72,1.55,3.17,1.55Zm44.84,0c1.42-.26,3.73.5,3.7-1.86,0-1.72-2.06-1.2-3.22-1.12-1.39.09-3.76-.92-3.72,1.65,0,1.71,2,1.16,3.24,1.34Zm11.52,0c1.27-.27,3.45.59,3.41-1.64,0-1.79-2-1.36-3.21-1.3s-3.57-.82-3.71,1.22,2.06,1.53,3.51,1.7Zm-78.53,0c1.25-.15,3.2.28,3.12-1.52-.1-2.14-2.23-1.44-3.58-1.46-1.19,0-3.12-.4-2.84,1.66.23,1.78,2.07,1.13,3.3,1.32Zm33.88,0c1.24-.16,3.11.34,3.16-1.49s-1.85-1.57-3.07-1.49-3.5-.74-3.36,1.63c.11,1.79,2,1.15,3.27,1.35Zm11.16,0c1.25-.19,3.21.28,3-1.62-.23-2.08-2.33-1.24-3.67-1.33-1.08-.07-2.76-.26-2.73,1.29.08,2.25,2.14,1.35,3.4,1.64Zm10.82-3.07c-.94.55-3.16-.69-3.19,1.7,0,1.52,1.61,1.42,2.73,1.35,1.37-.08,3.46.67,3.7-1.39S447.83,473.09,446.36,472.84Zm33.86,3.08c1.22-.21,3.06.45,3.29-1.35.26-2.05-1.67-1.66-2.86-1.64s-3.49-.69-3.57,1.47C477,476.2,479,475.76,480.22,475.92Zm11.23,0c1.23-.15,3.18.31,3.11-1.48-.08-2.15-2.21-1.42-3.54-1.45s-3.1-.43-2.85,1.61c.21,1.74,2.05,1.08,3.27,1.24Z"/><path id="Tracé_262" data-name="Tracé 262" class="cls-1" d="M303.94,471.89l-.24-68.14V374.9l5.85,1.13c.61,2,1.65,2.43,3.22.86a173.63,173.63,0,0,0,23.09,4c1.49,2.4,2.85,4.92,5.73,6,2.19.81,2.15,2.67,2.15,4.55,0,25.92-.06,51.85.09,77.78,0,2.56-3.21,5-.24,7.62-12.91-.74-26.14,2.56-38.68-3h0Zm13.82,2.24c-1.2-1.65-3.35-2.11-5.16-3a1.15,1.15,0,0,0-1.49.65,1.21,1.21,0,0,0-.05.68c.45,2.34,2.5,2.84,4.41,3.28C316.48,476,317.44,475.68,317.76,474.13Zm-8.05-77.35c.33,1.26-.67,3.5,1.43,3.49,1.78,0,1.66-2.11,1.6-3.55s.51-3.49-1.53-3.46S310,395.46,309.71,396.78ZM312.79,430c-.2-1.41.21-3.62-1.86-3.36s-1.08,2.45-1.14,3.81-.44,3.22,1.42,3.14c2.13-.09,1.35-2.23,1.58-3.59Zm-3.09,22.68c.38,1.29-.72,3.61,1.5,3.55,1.83-.06,1.58-2.24,1.55-3.7,0-1.25.42-3.19-1.36-3.26-2.35-.1-1.32,2.14-1.69,3.41Zm3.08-33.94c-.19-1.32.17-3.48-1.89-3.18-1.87.26-1.06,2.42-1.1,3.76,0,1.18-.51,3.2,1.33,3.08S312.68,420.26,312.78,418.75Zm-3.12,45c.67,1-.82,3.22,1.23,3.49s1.8-1.86,1.85-3.25.22-3.47-1.62-3.58-1.16,1.93-1.46,3.37Zm3.12-56c-.18-1.34.18-3.5-1.83-3.28s-1.12,2.37-1.16,3.7c0,1.18-.55,3.18,1.28,3.13s1.59-2.06,1.71-3.53Zm10.36,68.12c1.27-.29,3.35.61,3.42-1.65,0-1.57-1.65-1.36-2.72-1.3-1.35.09-3.44-.74-3.68,1.33s1.74,1.44,3,1.64Zm11.33-3c-1.18.23-3-.5-3.27,1.31-.26,2,1.63,1.71,2.85,1.69s3.48.61,3.57-1.52c.07-1.85-1.9-1.3-3.15-1.51ZM312.84,385c-.36-1,.25-3-1.71-2.77s-1.26,2.35-1.34,3.7c-.07,1.08-.26,2.76,1.32,2.72C313.37,388.57,312.52,386.5,312.84,385Zm0,56.54c-.29-1.24.58-3.34-1.75-3.31-1.57,0-1.31,1.7-1.25,2.77.06,1.36-.71,3.47,1.4,3.64C313,444.78,312.64,442.84,312.79,441.53Z"/><path id="Tracé_263" data-name="Tracé 263" class="cls-1" d="M576,374.9q-.12,48.5-.22,97l-1,2h0c-3.78.38-6.72,3.28-10.81,3.15-9.28-.29-18.58-.14-27.87-.17.31-1.43,8.66-1.41.75-4.39-1.58-.6-.87-2.7-.87-4.12q0-37.95-.07-75.88c0-2.91.35-5.17,3.47-6.33,2.34-.87,3.11-3.35,4.45-5.22,3.38-.51,6.75-1.24,10.15-1.45,5-.31,9.66-3,14.82-1.89-3,1.61-1.84,4.15-1.37,6.48.06.28.93.71,1.17.58,2.34-1.22,1-3.46,1.34-5.25a6.69,6.69,0,0,0-.08-1.48C570.82,374.73,574,376,576,374.9ZM570,404c-.33-1.31.69-3.53-1.36-3.71-2.25-.21-1.61,2-1.66,3.38s-.32,3.51,1.66,3.54,1.1-2,1.37-3.21Zm0,11c-.6-1.09.82-3.5-1.61-3.69-1.69-.14-1.5,1.8-1.47,3,0,1.53-.5,3.77,1.65,4,1.82.1,1.14-2,1.44-3.39Zm0,21.86c-.28-1.2.54-3.24-1.32-3.24s-1.75,2.08-1.7,3.52-.59,3.59,1.63,3.42C570.63,440.38,569.64,438.15,570,436.84Zm0,23.1c-.33-1.32.69-3.46-1.42-3.69-1.87-.21-1.64,1.72-1.6,3,0,1.54-.6,3.88,1.73,4,1.81,0,1-2.13,1.29-3.32Zm0-34.09c-.33-1.25.66-3.42-1.6-3.31-1.55.08-1.44,1.93-1.44,3.23s-.2,3.58,1.6,3.6c2.13,0,1.09-2.26,1.44-3.53Zm0,22.35c-.42-.92.49-2.88-1.43-3s-1.66,1.72-1.62,3-.61,3.47,1.61,3.45c1.88-.06,1.19-2,1.47-3.46Zm-1.55,19.06c-1.92,1.13-1.77,3.36-2.46,5.14a1,1,0,0,0,.64,1.26,1,1,0,0,0,.46,0c2.31-.39,2.55-2.33,2.74-4.15.14-1,.15-2.07-1.35-2.3Zm-20.87,5.58c-1.24.33-3.44-.66-3.38,1.63.05,1.78,2,1.32,3.21,1.33s3.08.43,3.19-1.38S548.76,473.11,547.54,472.84Zm11,3c1.25-.15,3.2.28,3.12-1.52-.1-2.14-2.24-1.44-3.58-1.46s-3.12-.4-2.84,1.65c.19,1.86,2,1.21,3.26,1.4ZM570,392.39c-.24-1.19.48-3.15-1.33-3.24-2.29-.12-1.62,2-1.68,3.37s-.31,3.1,1.55,3,1.2-1.84,1.42-3.06Z"/><path id="Tracé_264" data-name="Tracé 264" class="cls-8" d="M368.63,367q.08,57.67.12,115.36c0,5.63-3.75,9.44-8.78,9.56a8.79,8.79,0,0,1-9.17-8.38c0-.23,0-.47,0-.71q0-57.93.14-115.86l4.43.08c-.37,3.13-2.14,6.51,1.62,8.88a4.74,4.74,0,0,0,5.54,0c3.63-2.4,2.08-5.73,1.57-8.88Zm-14,54.27c.13,3.49,2.1,5.41,5.28,5.32s5.14-2.14,5-5.5a4.77,4.77,0,0,0-4.55-5,3.38,3.38,0,0,0-.45,0c-3.31,0-5.2,1.89-5.33,5.18Zm0,24.94c.18,3.5,2.12,5.41,5.34,5.3a4.79,4.79,0,0,0,5-4.59,4,4,0,0,0,0-.49c0-3.33-1.85-5.33-5.11-5.4s-5.12,2-5.29,5.18Z"/><path id="Tracé_265" data-name="Tracé 265" class="cls-8" d="M528.77,367.89q.08,57.23.12,114.44c0,5.64-3.65,9.46-8.69,9.61-5.26.14-9.27-3.72-9.28-9.58q-.06-57.23.09-114.44c1.45,0,3-.36,4.09,1-.6,2.72-.56,5.26,2.11,7a4.76,4.76,0,0,0,5.55-.06c3.21-2.08,2.25-5.1,1.77-8Zm-3.66,78.34c-.14-3.11-1.8-5.2-5.12-5.19s-5.19,2-5.2,5.32a4.82,4.82,0,0,0,4.47,5.15h.42C522.89,451.68,524.86,449.84,525.11,446.23Zm0-25c-.15-3.3-2.06-5.18-5.29-5.13a4.77,4.77,0,0,0-5,4.53,3.69,3.69,0,0,0,0,.47c-.11,3.36,1.87,5.39,5,5.47s5.1-1.85,5.22-5.32Z"/><path id="Tracé_266" data-name="Tracé 266" class="cls-1" d="M488.83,385.94c.06,2,.23,4,.18,6-.21,8.16-5.63,13.81-13.83,13.86-23.59.12-47.18.16-70.77,0-9.74-.07-14.22-6.6-13.62-18.9l2.3.11a4.38,4.38,0,0,0-.18,1.44c.42,2.14-1.39,5.72,1.67,6,1.62.14-.13-3.59.37-5.55a6.21,6.21,0,0,0-.15-1.92c14.19-.13,28.38-.11,42.55,1-.73,1.65-1.72,3.23-1,5.19,1.33,3.34,3.85,4.81,7.09,3.46,4.15-1.73,4.15-5.09,2.31-8.69C460.08,385.84,474.55,388.1,488.83,385.94Zm-72,15.28c-.64-1.32-1.89-1.13-3-1s-2.25.33-1.64,1.71,2,.89,3.1.82c.85-.08,1.62-.4,1.56-1.53Zm29,.4c.58,1.42,1.84,1.14,3,1.14.86,0,1.92-.24,1.87-1.18-.08-1.63-1.53-1.42-2.64-1.42s-2.08.11-2.25,1.46Zm10.66,1.22c1,0,2.28,0,2.34-1.25s-1.18-1.41-2.18-1.38-2.63-.21-2.55,1.46C454.16,402.89,455.52,402.71,456.49,402.84Zm-47.78-1.19c-.18-1.35-1.21-1.45-2.21-1.44s-2.57-.2-2.62,1.44c0,.94,1,1.16,1.89,1.16,1.12-.05,2.38.22,2.94-1.21Z"/><path id="Tracé_267" data-name="Tracé 267" class="cls-8" d="M594.92,336.2c-.29-13.8-3.1-27.3-4.81-40.93-1.68-13.3-3.41-26.6-5.31-39.87a12.73,12.73,0,0,0-11.58-11.35A131.7,131.7,0,0,0,557.85,243c-14.31-.08-28.61-.75-42.88-1.27-48-1.76-95.93-.63-143.89-.56-17.4,0-34.84,1.37-52.27,1.82A111.54,111.54,0,0,0,306.43,244c-7.23,1-11.14,5.61-12.43,15.25-2.54,19-4.72,38.11-7.26,57.15-.88,6.57-2.18,13.09-2,19.77-2.76-8.28-.51-16.48.54-24.65,2.37-18.31,5.09-36.57,7.49-54.87,1.26-9.58,7-15.36,16.72-15.91,56.4-3.19,112.85-3.43,169.31-2.92q45.46.42,90.86,2.9c10.45.58,15.88,6.08,17.26,16.43,2.74,20.6,5.75,41.18,8.5,61.78C596.22,324.69,597.07,330.51,594.92,336.2Z"/><path id="Tracé_268" data-name="Tracé 268" class="cls-9" d="M375.94,476.84H503.73c.73,3.88-.72,5.14-4.77,5.13q-59.13-.23-118.25,0C376.66,482,375.22,480.75,375.94,476.84Z"/><path id="Tracé_269" data-name="Tracé 269" class="cls-4" d="M393.09,387l-2.3-.11v-6.26c2.89-.34,1.38,2.6,3.46,3,.62-3.47,3.36-2.88,6-2.83,24.78.56,49.56.52,74.34.13a79.66,79.66,0,0,0,8.46-.48c6.06-.65,6.09-.68,5.81,5.56-14.28,2.16-28.75-.08-43,1.95-2.83-2.07-5.65-2.37-8.45,0-14.17-1.11-28.36-1.13-42.55-1Z"/><path id="Tracé_270" data-name="Tracé 270" class="cls-8" d="M528.94,329.49a16.68,16.68,0,0,1,0,2c-.39,3.92,1.91,9.62-.94,11.37-4.14,2.55-10,.68-15.13.81-1.9,0-2-1.35-2-2.76,0-7.67.07-15.33,0-23,0-2.58,1.19-3,3.37-3,3.83.1,7.67.17,11.49,0,2.77-.14,3.38,1.14,3.29,3.57C528.84,322.16,528.94,325.84,528.94,329.49Zm-9.1-1.81c-3,.21-5,1.74-5,4.92-.08,3.38,1.73,5.33,5.12,5.33s5.17-2,5.07-5.37C524.92,329.38,523,327.84,519.84,327.68Z"/><path id="Tracé_271" data-name="Tracé 271" class="cls-8" d="M368.81,329.23c0,3.66-.11,7.33,0,11,.09,2.49-.63,3.67-3.35,3.55-3.82-.18-7.66-.17-11.49,0-2.75.13-3.35-1.15-3.32-3.59.1-7.16.14-14.32,0-21.48-.06-2.74.72-3.69,3.62-3.79C368.81,314.41,368.81,314.32,368.81,329.23ZM359.37,338c3.34-.12,5.41-1.66,5.49-5.1.07-3.14-1.63-5-4.78-5.18s-5.13,1.3-5.4,4.51S356,337.55,359.37,338Z"/><path id="Tracé_272" data-name="Tracé 272" class="cls-5" d="M383.86,369.89q56,2.22,112,0c.61,2.77-1.16,2.91-3.18,3q-52.8,2.64-105.59,0C385,372.84,383.22,372.66,383.86,369.89Z"/><path id="Tracé_273" data-name="Tracé 273" class="cls-4" d="M589.72,360.5c1.71,11.19,3.41,22.3,5.1,33.41q3.31,21.66,6.6,43.32c.23,1.51,1.42,3.7-.75,4.3-2.41.67-2.95-1.69-3.23-3.48q-2.84-17.7-5.53-35.43c-1.88-12.3-3.66-24.62-5.66-36.91C585.8,362.9,586.22,361.17,589.72,360.5Z"/><path id="Tracé_274" data-name="Tracé 274" class="cls-4" d="M278,439.63c1.76-12,3.41-23.3,5.1-34.63,1.94-13,3.85-25.94,5.94-38.88.3-1.86-.3-5.39,2.11-5.2,3.42.27,2.37,3.38,2,6-3.56,22.92-6.89,45.92-10.38,68.92a21,21,0,0,1-1.13,4.34,2.17,2.17,0,0,1-2.69,1.45l-.14-.05C277.55,441.13,278,439.92,278,439.63Z"/><path id="Tracé_275" data-name="Tracé 275" class="cls-9" d="M576,374.9c-2,1.09-5.13-.17-6.13,3l-1.06-.33c-5.16-1.13-9.83,1.58-14.82,1.89-3.4.21-6.77.94-10.15,1.45-.6-4.62.84-7.07,6.08-7.16,4.07-.07,8.12-1.31,12.17-2a2.61,2.61,0,0,0,.94-.31c2.81-1.78,4.2,2.49,5.87,1.77s1.77-4.15,4.66-4.27c.93,0,2.19-1.16,2.69-.1a6.08,6.08,0,0,1-.25,6.06Z"/><path id="Tracé_276" data-name="Tracé 276" class="cls-9" d="M493.76,426.84c0,10-5.91,16.05-15.89,16.06-7.76,0-15.51-.1-23.27-.16.24-3.74,2.17-5.07,5.91-4.87,5.14.28,10.33-.26,15.46.14C484.81,438.7,490.59,435,493.76,426.84Z"/><path id="Tracé_277" data-name="Tracé 277" class="cls-9" d="M425.07,442.74c-7.75.06-15.51.17-23.27.16-10,0-15.89-6-15.89-16.06,3.17,8.13,8.95,11.86,17.79,11.17,5.13-.4,10.32.14,15.46-.14C422.9,437.67,424.83,439,425.07,442.74Z"/><path id="Tracé_278" data-name="Tracé 278" class="cls-9" d="M304.93,473.84c12.54,5.54,25.77,2.24,38.68,3,.83,3.84-.49,5.33-4.61,5.16-7.43-.29-14.88.08-22.32-.14C311.22,481.7,306.82,479.49,304.93,473.84Z"/><path id="Tracé_279" data-name="Tracé 279" class="cls-9" d="M536.06,476.84c9.29,0,18.59-.12,27.87.17,4.09.13,7-2.77,10.81-3.15-1.89,5.64-6.28,7.85-11.75,8-7.44.22-14.89-.16-22.32.14C536.55,482.16,535.22,480.67,536.06,476.84Z"/><path id="Tracé_280" data-name="Tracé 280" class="cls-10" d="M535.33,381.32V359c0-6.9,0-6.91-6.88-7-1,0-2,0-3-.08-.65-.05-1.34-.2-1.36-1.08a1.45,1.45,0,0,1,1.22-1.63h.2a89.71,89.71,0,0,1,9.42.23c2,.21,3.13,1.83,3.13,3.91v24.89C538,379.58,537.67,380.89,535.33,381.32Z"/><path id="Tracé_281" data-name="Tracé 281" class="cls-10" d="M344.34,381.84c-3.2-1.86-2.78-4-2.79-5.94q-.07-9.94,0-19.91c0-5.92,1-7,7-6.74,2.33.09,6.45-1.82,6.63,1.57.13,2.37-4.13,1.13-6.36,1.14-3.64,0-4.54,1.84-4.51,5C344.38,365,344.34,373.06,344.34,381.84Z"/><path id="Tracé_282" data-name="Tracé 282" class="cls-9" d="M335.88,380.84a173.63,173.63,0,0,1-23.09-4c-.83-4.89.71-6.54,5.84-5.09,4.41,1.24,9.08,1.59,13.65,2.21S335.68,378.08,335.88,380.84Z"/><path id="Tracé_283" data-name="Tracé 283" class="cls-10" d="M504.68,381.44c-3.22-1-2.91-3.1-2.92-5,0-7.15.09-14.31-.05-21.46-.08-4,1.69-5.87,5.62-5.81a6.7,6.7,0,0,1,2,0c2.11.67,6-1.66,6.07,1.7,0,2.47-3.91,1.09-6,1.07-3.83,0-4.86,1.63-4.79,5.15C504.79,365.05,504.68,373,504.68,381.44Z"/><path id="Tracé_284" data-name="Tracé 284" class="cls-10" d="M375,381.38c0-8.14-.21-16,.08-23.75.17-4.45-1.48-6.14-5.78-5.61a20.34,20.34,0,0,1-3.49,0c-.78,0-1.75.07-1.84-1.11s.73-1.74,1.85-1.74a79.58,79.58,0,0,1,8.46.19,3.81,3.81,0,0,1,3.61,4v24.51C377.88,379.41,377.47,380.84,375,381.38Z"/><path id="Tracé_285" data-name="Tracé 285" class="cls-1" d="M439.84,448.15a12.42,12.42,0,0,1-11-5.82c-.8-1.18-2.7-2.84-1-4.13s2.73.56,3.8,2c3.87,5.18,9.79,6.06,14.28,2.25a8.72,8.72,0,0,0,2.3-2.61c.8-1.64,2.21-2.57,3.53-1.63,1.59,1.14-.05,2.61-.7,3.73A12.66,12.66,0,0,1,439.84,448.15Z"/><path id="Tracé_286" data-name="Tracé 286" class="cls-11" d="M469.35,200.58c-19.63-10.42-39.22-10.5-59.66.7C421.55,189.18,455.14,187.91,469.35,200.58Z"/><path id="Tracé_287" data-name="Tracé 287" class="cls-10" d="M521.42,360.45v10c0,1-.13,2.19-1.36,2.28s-1.42-1.16-1.42-2.13V350.15c0-1,.15-2.23,1.51-2,1.18.17,1.27,1.38,1.28,2.37C521.45,353.84,521.43,357.13,521.42,360.45Z"/><path id="Tracé_288" data-name="Tracé 288" class="cls-10" d="M361.07,360.84v9.48c0,1,.11,2.2-1.15,2.41s-1.6-1.05-1.61-2q-.06-10.47,0-21c0-.78.33-1.71,1.4-1.69s1.28.93,1.29,1.76v11Z"/><path id="Tracé_289" data-name="Tracé 289" class="cls-4" d="M515.1,369c-1.1-1.4-2.64-1.06-4.09-1-.05-2.48-.07-4.95-.16-7.42-.06-1.82.61-2.77,2.58-2.7,1.66.06,2.46.81,2.33,2.43C515.51,363.14,516.55,366.14,515.1,369Z"/><path id="Tracé_290" data-name="Tracé 290" class="cls-4" d="M528.77,367.89h-4.24c-1.1-2.35-.35-4.83-.53-7.24-.12-1.69.42-2.83,2.42-2.85s2.55,1,2.5,2.74C528.84,363,528.82,365.44,528.77,367.89Z"/><path id="Tracé_291" data-name="Tracé 291" class="cls-9" d="M309.57,376l-5.85-1.13a5.55,5.55,0,0,1-.25-6c.91-1.42,2.71,0,4,.47C311.07,370.57,309.56,373.57,309.57,376Z"/><path id="Tracé_292" data-name="Tracé 292" class="cls-4" d="M368.63,367H364.1q-.11-3.45-.19-6.9c-.05-1.69.85-2.31,2.44-2.31s2.49.59,2.45,2.29C368.73,362.41,368.68,364.71,368.63,367Z"/><path id="Tracé_293" data-name="Tracé 293" class="cls-4" d="M355.37,367.06l-4.43-.08c0-2.3-.1-4.59-.16-6.89,0-1.7.88-2.29,2.46-2.28s2.47.73,2.41,2.37C355.58,362.47,355.47,364.77,355.37,367.06Z"/><path id="Tracé_294" data-name="Tracé 294" class="cls-9" d="M445.88,437.89c-4.58,5.82-7.75,5.81-12,.32C437.54,437.28,441.73,437.74,445.88,437.89Z"/><path id="Tracé_295" data-name="Tracé 295" class="cls-11" d="M401.81,206.89a3.18,3.18,0,0,1,3-3h0C404.67,205.75,403.51,206.59,401.81,206.89Z"/><path id="Tracé_296" data-name="Tracé 296" class="cls-11" d="M477.82,206.93c-1.7-.3-2.86-1.14-3-3h0A3.18,3.18,0,0,1,477.82,206.93Z"/><path id="Tracé_297" data-name="Tracé 297" class="cls-11" d="M497.83,228.92a5.65,5.65,0,0,1,4.27,1.5c-2.1.81-3.3,0-4.26-1.51Z"/><path id="Tracé_298" data-name="Tracé 298" class="cls-11" d="M381.83,228.91c-.88,1.57-2.2,2.11-4.22,1.81a4.51,4.51,0,0,1,4.23-1.8Z"/><path id="Tracé_299" data-name="Tracé 299" class="cls-11" d="M406.82,202.9c0-.84.31-1.47,1.25-1.53.11,0,.33.2.32.29,0,1-.79,1.14-1.55,1.26Z"/><path id="Tracé_300" data-name="Tracé 300" class="cls-11" d="M482.81,211.94a2,2,0,0,1-2-2h.05a2,2,0,0,1,2,2Z"/><path id="Tracé_301" data-name="Tracé 301" class="cls-11" d="M396.81,211.9a2,2,0,0,1,2-2h0a1.94,1.94,0,0,1-1.88,2Z"/><path id="Tracé_302" data-name="Tracé 302" class="cls-11" d="M472.83,202.92c-.76-.12-1.51-.27-1.55-1.26a.47.47,0,0,1,.32-.29c.94.06,1.24.69,1.25,1.53Z"/><path id="Tracé_303" data-name="Tracé 303" class="cls-11" d="M384.84,226.92a1.9,1.9,0,0,1-2,1h0A1.83,1.83,0,0,1,384.84,226.92Z"/><path id="Tracé_304" data-name="Tracé 304" class="cls-9" d="M574.77,473.84l1-1.95A1.82,1.82,0,0,1,574.77,473.84Z"/><path id="Tracé_305" data-name="Tracé 305" class="cls-9" d="M303.94,471.89l1,1.95A1.82,1.82,0,0,1,303.94,471.89Z"/><path id="Tracé_306" data-name="Tracé 306" class="cls-11" d="M472.85,202.9a1.86,1.86,0,0,1,2,1h0A1.86,1.86,0,0,1,472.85,202.9Z"/><path id="Tracé_307" data-name="Tracé 307" class="cls-11" d="M404.83,203.9a1.86,1.86,0,0,1,2-1h0A1.86,1.86,0,0,1,404.83,203.9Z"/><path id="Tracé_308" data-name="Tracé 308" class="cls-11" d="M496.83,227.92a1.9,1.9,0,0,1-2-1h0A1.83,1.83,0,0,1,496.83,227.92Z"/><path id="Tracé_309" data-name="Tracé 309" class="cls-11" d="M387.84,223.92l-1,1h0Z"/><path id="Tracé_310" data-name="Tracé 310" class="cls-11" d="M491.83,223.92l-1-1,.07-.07,1,1Z"/><path id="Tracé_311" data-name="Tracé 311" class="cls-11" d="M388.87,222.94l-1,1h0C388.19,223.6,388.52,223.26,388.87,222.94Z"/><path id="Tracé_312" data-name="Tracé 312" class="cls-11" d="M493.82,225.94l-1-1h0Z"/><path id="Tracé_313" data-name="Tracé 313" class="cls-11" d="M490.8,222.94l-.41-.55.48.48Z"/><path id="Tracé_314" data-name="Tracé 314" class="cls-11" d="M388.8,222.84l.48-.48-.41.55Z"/><path id="Tracé_315" data-name="Tracé 315" class="cls-11" d="M488.85,219.9l.42.53c-.11,0-.26,0-.32-.08a1.88,1.88,0,0,1-.14-.42Z"/><path id="Tracé_316" data-name="Tracé 316" class="cls-11" d="M394.86,214.93l-1,1v-.06l1-1Z"/><path id="Tracé_317" data-name="Tracé 317" class="cls-11" d="M484.82,214.93l-.42-.53c.11,0,.26,0,.32.08a1.48,1.48,0,0,1,.14.42Z"/><path id="Tracé_318" data-name="Tracé 318" class="cls-11" d="M394.81,214.89l.46-.49c-.14.17-.27.35-.41.53Z"/><path id="Tracé_319" data-name="Tracé 319" class="cls-11" d="M487.82,218.93l-.42-.53c.11,0,.26,0,.32.08a1.48,1.48,0,0,1,.14.42Z"/><path id="Tracé_320" data-name="Tracé 320" class="cls-11" d="M382.84,227.92l-1,1h0Z"/><path id="Tracé_321" data-name="Tracé 321" class="cls-11" d="M482.86,211.9l.41.53c-.15-.16-.31-.32-.46-.49Z"/><path id="Tracé_322" data-name="Tracé 322" class="cls-11" d="M396.86,211.94l-.46.49c.14-.18.28-.35.41-.53Z"/><path id="Tracé_323" data-name="Tracé 323" class="cls-11" d="M400.85,207.93l-1,1h0Z"/><path id="Tracé_324" data-name="Tracé 324" class="cls-11" d="M485.82,215.94l-1-1h0Z"/><path id="Tracé_325" data-name="Tracé 325" class="cls-11" d="M480.81,209.93l-1-1h.05l1,1Z"/><path id="Tracé_326" data-name="Tracé 326" class="cls-11" d="M393.86,216l-.47.48.42-.54Z"/><path id="Tracé_327" data-name="Tracé 327" class="cls-11" d="M478.85,207.89l1,1h-.05l-1-1Z"/><path id="Tracé_328" data-name="Tracé 328" class="cls-11" d="M478.82,207.93c-.34-.33-.67-.66-1-1h0Z"/><path id="Tracé_329" data-name="Tracé 329" class="cls-11" d="M400.82,207.89l1-1h0C401.49,207.23,401.16,207.56,400.82,207.89Z"/><path id="Tracé_330" data-name="Tracé 330" class="cls-11" d="M485.85,215.9l.43.53c-.11,0-.26,0-.32-.09a1.12,1.12,0,0,1-.14-.4Z"/><path id="Tracé_331" data-name="Tracé 331" class="cls-11" d="M391.81,218.89l.46-.49v.33a1.2,1.2,0,0,1-.39.2Z"/><path id="Tracé_332" data-name="Tracé 332" class="cls-11" d="M390.81,219.9l1-1h0Z"/><path id="Tracé_333" data-name="Tracé 333" class="cls-11" d="M494.83,226.92l-1-1h0Z"/><path id="Tracé_334" data-name="Tracé 334" class="cls-11" d="M384.83,226.91l1-1h0Z"/><path id="Tracé_335" data-name="Tracé 335" class="cls-11" d="M386.84,224.92c-.33.34-.65.68-1,1h0Z"/><path id="Tracé_336" data-name="Tracé 336" class="cls-11" d="M496.84,227.91l1,1h0Z"/><path id="Tracé_337" data-name="Tracé 337" class="cls-11" d="M487.86,218.9l1,1h0Z"/><path id="Tracé_338" data-name="Tracé 338" class="cls-11" d="M390.86,219.94l-.46.49c.13-.18.27-.36.41-.53Z"/><path id="Tracé_339" data-name="Tracé 339" class="cls-11" d="M491.84,223.91l1,1h0Z"/><path id="Tracé_340" data-name="Tracé 340" class="cls-11" d="M398.82,209.89l1-1h0C399.49,209.23,399.16,209.56,398.82,209.89Z"/><path id="Tracé_341" data-name="Tracé 341" class="cls-6" d="M441.63,308.3a41.85,41.85,0,0,1,14.1,2.9c3.19,1.36,5.32,3.64,4.85,7.31-1.36,10.52-5.86,19.33-14.44,25.84-2.9,2.2-5.86,2.44-8.72.25-8.47-6.46-13.58-14.9-14.66-25.64-.39-3.88,1.21-6.32,4.76-7.79a45.41,45.41,0,0,1,14.11-2.87ZM427.73,324c1.35,7.43,5.82,12.83,11.44,17.46,1.66,1.36,3.22,1.31,4.91-.07,5.91-4.87,10.37-10.63,11.68-18.41,2-6.82,1.59-7.63-4.93-9.54a32.85,32.85,0,0,0-17.1-.4c-7.8,1.85-8.51,3.09-6,11Z"/><path id="Tracé_342" data-name="Tracé 342" class="cls-6" d="M401.3,364.27c1.35.42,3.79-.55,3.77,1.94,0,1.66-2,1.51-3.24,1.34-1.47-.19-3.85.65-3.84-1.87C398,363.92,400,364.39,401.3,364.27Z"/><path id="Tracé_343" data-name="Tracé 343" class="cls-6" d="M534.34,248.5c-1.36-.42-3.82.57-3.73-2,.06-1.6,2-1.46,3.29-1.31,1.48.17,3.87-.62,3.78,1.92C537.62,248.84,535.67,248.38,534.34,248.5Z"/><path id="Tracé_344" data-name="Tracé 344" class="cls-6" d="M320.88,249.5c-1.55-.22-3.54.22-3.3-1.66.29-2.25,2.56-1.54,4.09-1.66,1.24-.09,3.17-.34,3,1.55C324.38,250.14,321.9,248.74,320.88,249.5Z"/><path id="Tracé_345" data-name="Tracé 345" class="cls-6" d="M480.22,367.53c-1.68,0-3.63.28-3.68-1.34-.07-2.44,2.3-1.78,3.81-1.94,1.27-.14,3.22-.39,3.29,1.25C483.74,368.1,481.12,366.84,480.22,367.53Z"/><path id="Tracé_346" data-name="Tracé 346" class="cls-6" d="M557,249.33c-1.34-.5-3.76.61-3.93-1.78-.14-1.86,1.84-1.49,3.08-1.44,1.54.06,3.8-.48,4,1.73C560.35,249.69,558.36,249.2,557,249.33Z"/><path id="Tracé_347" data-name="Tracé 347" class="cls-6" d="M343.62,248.55c-1.55-.16-3.5.2-3.51-1.38,0-2.4,2.32-1.64,3.76-1.82,1.23-.14,3.17-.33,3.21,1.25C347.13,249.05,344.61,247.84,343.62,248.55Z"/><path id="Tracé_348" data-name="Tracé 348" class="cls-6" d="M299.69,275.51c-.61,1.54.12,3.88-2,4.2s-1.82-1.62-1.49-2.82c.41-1.48-.26-3.83,1.83-4.16S299.52,274.37,299.69,275.51Z"/><path id="Tracé_349" data-name="Tracé 349" class="cls-6" d="M585.93,318.23c0-1.29-.27-3,1.18-3,2.65.15,1.61,2.8,2.18,4.34.43,1.16.11,2.91-1.14,2.82C585.59,322.23,586.42,319.69,585.93,318.23Z"/><path id="Tracé_350" data-name="Tracé 350" class="cls-6" d="M308.9,354.7c.38-1.29,1.23-1.65,2.27-1.2,1.69.74,4.3.17,4.83,2.52.34,1.49-1.18,1.72-2.38,1.29C311.9,356.71,309.63,357,308.9,354.7Z"/><path id="Tracé_351" data-name="Tracé 351" class="cls-6" d="M580.31,346.43c1.05.23,1.8.82,1.36,1.71a8,8,0,0,1-4.65,4,1.12,1.12,0,0,1-1.5-1.34C576.3,348.51,578.55,347.64,580.31,346.43Z"/><path id="Tracé_352" data-name="Tracé 352" class="cls-6" d="M322.92,356c1.43.79,4.11-.18,4.06,2.51,0,1.48-1.75,1.43-2.79,1-1.46-.66-4.2.37-4.12-2.39C320.11,355.52,321.83,356.1,322.92,356Z"/><path id="Tracé_353" data-name="Tracé 353" class="cls-6" d="M293.5,320.25c-.75,1.29.21,3.79-2,4-1.8.17-1.7-1.74-1.4-3,.36-1.49-.15-3.85,2-4.06C294,317,293.53,318.9,293.5,320.25Z"/><path id="Tracé_354" data-name="Tracé 354" class="cls-6" d="M581.74,263.76c0,1.57.17,3.24-1.42,3-2.45-.42-1.45-2.94-2-4.51-.39-1.11-.11-2.76,1.36-2.51C582.1,260.13,581,262.69,581.74,263.76Z"/><path id="Tracé_355" data-name="Tracé 355" class="cls-6" d="M297.79,265.78c.42-1.56-.44-4.07,2.16-4.22,1.45-.08,1.31,1.68,1,2.79-.42,1.56.67,4.15-2,4.28C297.36,268.71,297.93,266.9,297.79,265.78Z"/><path id="Tracé_356" data-name="Tracé 356" class="cls-6" d="M582.89,296c.06-1.22-.35-3,1.17-2.87,2.89.26,1.47,3.12,2.2,4.74.43,1,0,2.39-1.11,2.28C582.61,299.9,583.41,297.47,582.89,296Z"/><path id="Tracé_357" data-name="Tracé 357" class="cls-6" d="M301.16,257.84c-1.81-.23-2.21-1.16-2-2.18.4-1.87.54-4.06,2.87-4.71a1.13,1.13,0,0,1,1.43.69,1.11,1.11,0,0,1,0,.72C302.82,254.25,301.9,256.08,301.16,257.84Z"/><path id="Tracé_358" data-name="Tracé 358" class="cls-6" d="M511.94,244.73c1.27.35,3.58-.55,3.39,1.66-.16,1.81-2.33,1.41-3.75,1.35s-3.57.25-3.36-1.8S510.56,244.84,511.94,244.73Z"/><path id="Tracé_359" data-name="Tracé 359" class="cls-6" d="M558.86,355.74c1.23.14,2.81-.24,2.64,1.06-.36,2.75-3,1.78-4.72,2.32-1,.32-2.43.07-2.3-1C554.81,355.19,557.56,356.5,558.86,355.74Z"/><path id="Tracé_360" data-name="Tracé 360" class="cls-6" d="M293.05,299c.77-1.4-.09-3.93,2.24-3.92,1.8,0,1.53,2,1.14,3.16-.44,1.36.29,3.85-2.28,3.61C292.61,301.67,293.16,300,293.05,299Z"/><path id="Tracé_361" data-name="Tracé 361" class="cls-6" d="M587.79,308.38c0,1.35.22,3.09-1.25,2.9-2.54-.32-1.52-2.87-2-4.46-.34-1.12-.27-2.82,1.18-2.63C588.22,304.51,587.3,307,587.79,308.38Z"/><path id="Tracé_362" data-name="Tracé 362" class="cls-6" d="M411.07,246.91c-1.38-.24-3.57.61-3.78-1.33-.25-2.24,2-1.65,3.33-1.65s3.54-.74,3.76,1.23C414.63,247.38,412.38,246.66,411.07,246.91Z"/><path id="Tracé_363" data-name="Tracé 363" class="cls-6" d="M570.14,352.84c1.23.12,2.48.13,2.24,1.12-.61,2.57-3.14,2.42-5.08,3-.8.23-2-.12-1.81-1.08C566,353,569,354,570.14,352.84Z"/><path id="Tracé_364" data-name="Tracé 364" class="cls-6" d="M590,329.78c-.28,1.41.4,3.59-1.5,3.74-2.23.16-1.53-2-1.51-3.35s-.37-3.56,1.45-3.7C590.69,326.3,589.63,328.58,590,329.78Z"/><path id="Tracé_365" data-name="Tracé 365" class="cls-6" d="M354.55,248c-1.18-.37-3.49.76-3.24-1.6.18-1.83,2.33-1.4,3.73-1.39s3.52-.59,3.29,1.64C358.12,248.6,355.94,247.71,354.55,248Z"/><path id="Tracé_366" data-name="Tracé 366" class="cls-6" d="M366.08,244.78c1.28.3,3.52-.67,3.46,1.5-.06,1.91-2.22,1.46-3.62,1.49s-3.54.45-3.47-1.55S364.73,245.07,366.08,244.78Z"/><path id="Tracé_367" data-name="Tracé 367" class="cls-6" d="M292.93,332.31c-.13,1.27.47,3.08-1,3-2.54-.12-1.92-2.55-2.07-4.19-.11-1.18-.42-3.19,1.51-2.81S292.45,331.06,292.93,332.31Z"/><path id="Tracé_368" data-name="Tracé 368" class="cls-6" d="M587.83,339.46c-1,1.52-.91,4.15-3.61,4.42a1.11,1.11,0,0,1-1.16-1.06,1.09,1.09,0,0,1,.21-.7c1.05-1.7,1-4.38,3.59-4.75C587.83,337.22,587.83,338.42,587.83,339.46Z"/><path id="Tracé_369" data-name="Tracé 369" class="cls-6" d="M309.22,249.94c-1.16-.1-3,.36-2.78-1.19.3-2.5,2.71-1.73,4.36-1.87,1.06-.09,2.86-.27,2.69,1.22C313.22,250.74,310.67,249.43,309.22,249.94Z"/><path id="Tracé_370" data-name="Tracé 370" class="cls-6" d="M567.55,246.73c1.64.31,3.87-.38,3.87,1.6s-2.15,1.47-3.54,1.45-3.58.2-3.58-1.62C564.29,245.94,566.63,247.29,567.55,246.73Z"/><path id="Tracé_371" data-name="Tracé 371" class="cls-6" d="M294.35,339.15a11,11,0,0,1,3.23,5.16,1.16,1.16,0,0,1-.88,1.38,1.11,1.11,0,0,1-.65,0c-2.12-.95-2.92-3-3.35-5.1C292.54,339.73,293,339,294.35,339.15Z"/><path id="Tracé_372" data-name="Tracé 372" class="cls-6" d="M388.22,247.22c-1.49-.19-3.39.45-3.23-1.57s2.21-1.46,3.57-1.55,3.23-.32,3.24,1.32C391.81,248.12,389.15,246.36,388.22,247.22Z"/><path id="Tracé_373" data-name="Tracé 373" class="cls-6" d="M467.12,243.84c1.28.3,3.54-.57,3.34,1.67-.17,2-2.33,1.32-3.69,1.32s-3.56.39-3.37-1.69S465.79,244.16,467.12,243.84Z"/><path id="Tracé_374" data-name="Tracé 374" class="cls-6" d="M412.82,367.9c-1.51-.2-3.7.36-3.69-1.6s2.23-1.38,3.56-1.39,3.58-.55,3.58,1.45S414.08,367.73,412.82,367.9Z"/><path id="Tracé_375" data-name="Tracé 375" class="cls-6" d="M423.44,364.92c1.61.25,3.76-.49,4,1.4.29,2.33-2,1.58-3.25,1.6s-3.51.74-3.76-1.18C420.13,364.52,422.42,365.32,423.44,364.92Z"/><path id="Tracé_376" data-name="Tracé 376" class="cls-6" d="M294.89,309.28c-.42,1.43.35,3.88-2.06,3.78-1.83-.08-1-2.12-1-3.31,0-1.41-.26-3.53,1.7-3.61S294.69,308.06,294.89,309.28Z"/><path id="Tracé_377" data-name="Tracé 377" class="cls-6" d="M435,368.06c-1.24-.37-3.53.7-3.34-1.61.15-1.92,2.3-1.38,3.68-1.36s3.52-.52,3.33,1.66S436.22,367.69,435,368.06Z"/><path id="Tracé_378" data-name="Tracé 378" class="cls-6" d="M457.75,368c-1.3-.29-3.49.68-3.61-1.38s2.06-1.58,3.42-1.61,3.54-.55,3.64,1.4C461.32,368.57,459.07,367.7,457.75,368Z"/><path id="Tracé_379" data-name="Tracé 379" class="cls-6" d="M304.22,353.12a7.44,7.44,0,0,1-4.81-3.65,1.08,1.08,0,0,1,.48-1.45,1.15,1.15,0,0,1,.75-.08,7.47,7.47,0,0,1,4.92,3.61C306.12,352.49,305.22,352.91,304.22,353.12Z"/><path id="Tracé_380" data-name="Tracé 380" class="cls-6" d="M468.81,367.84c-1.38-.13-3.56.48-3.55-1.52s2.22-1.46,3.59-1.44,3.55-.75,3.55,1.35C472.4,368.1,470.22,367.71,468.81,367.84Z"/><path id="Tracé_381" data-name="Tracé 381" class="cls-6" d="M584.75,285.84c0,1.5.23,3.21-1.34,3-2.55-.35-1.43-2.94-2-4.5-.4-1.13-.13-2.69,1.49-2.3C585,282.55,584.22,284.84,584.75,285.84Z"/><path id="Tracé_382" data-name="Tracé 382" class="cls-6" d="M579.87,273.73c0-1.21-.26-3,1.3-2.75,2.55.33,1.48,2.9,2,4.47.36,1.12.21,2.73-1.44,2.34C579.68,277.31,580.22,275.16,579.87,273.73Z"/><path id="Tracé_383" data-name="Tracé 383" class="cls-6" d="M422.22,243.84c1.22.36,3.5-.71,3.28,1.63-.18,2-2.31,1.32-3.68,1.35s-3.52.45-3.32-1.67S420.92,244.14,422.22,243.84Z"/><path id="Tracé_384" data-name="Tracé 384" class="cls-6" d="M399.42,247c-1.22-.34-3.49.68-3.29-1.63.18-1.95,2.32-1.33,3.68-1.36s3.51-.48,3.32,1.65S400.78,246.69,399.42,247Z"/><path id="Tracé_385" data-name="Tracé 385" class="cls-6" d="M444.86,243.78c1.24.25,3.27-.47,3.17,1.36-.12,2.35-2.39,1.57-3.88,1.62-1.23,0-3.19.26-3.1-1.42C441.22,242.84,443.57,244.25,444.86,243.78Z"/><path id="Tracé_386" data-name="Tracé 386" class="cls-6" d="M455.91,246.84c-1.37-.22-3.51.55-3.73-1.37-.25-2.3,2-1.59,3.28-1.59s3.52-.73,3.74,1.19C459.45,247.2,457.22,246.62,455.91,246.84Z"/><path id="Tracé_387" data-name="Tracé 387" class="cls-6" d="M523.3,248c-1.55-.32-3.68.44-3.58-1.77.08-1.74,2-1.31,3.21-1.28,1.38,0,3.54-.45,3.61,1.48C526.61,248.67,524.29,247.52,523.3,248Z"/><path id="Tracé_388" data-name="Tracé 388" class="cls-6" d="M545.34,245.84c1.28.37,3.44-.58,3.42,1.65,0,1.76-1.88,1.41-3.11,1.36s-3.5.45-3.63-1.45C541.86,245,544.13,246.17,545.34,245.84Z"/><path id="Tracé_389" data-name="Tracé 389" class="cls-6" d="M576.31,249.33a6,6,0,0,1,3.63,4.89c.07.87-.55,2-1.42,1.4a9.09,9.09,0,0,1-3.6-5.09C574.74,249.89,575.47,249.41,576.31,249.33Z"/><path id="Tracé_390" data-name="Tracé 390" class="cls-6" d="M298,286.61c-.44,1.7.31,4-1.93,4.14-1.91.1-1.3-1.89-1.2-3,.12-1.47-.41-3.7,2-3.65C298.53,284.1,297.52,285.9,298,286.61Z"/><path id="Tracé_391" data-name="Tracé 391" class="cls-6" d="M390.13,363.84c1.38.22,3.55-.38,3.57,1.58,0,2.15-2.16,1.42-3.47,1.41s-3.42.43-3.28-1.76C387.08,363.27,389,364.12,390.13,363.84Z"/><path id="Tracé_392" data-name="Tracé 392" class="cls-6" d="M332.22,248.89c-1.19-.19-3.08.53-3.21-1.28-.16-2.29,2-1.67,3.26-1.68s3.5-.77,3.48,1.37C335.71,249.26,333.56,248.7,332.22,248.89Z"/><path id="Tracé_393" data-name="Tracé 393" class="cls-6" d="M491.62,363.84c1.22.21,3.25-.49,3.06,1.4-.22,2.21-2.5,1.5-4,1.63-1.07.09-2.75.33-2.74-1.2C488,363,490.32,364.27,491.62,363.84Z"/><path id="Tracé_394" data-name="Tracé 394" class="cls-6" d="M446.51,368.1c-1.4-.34-3.41.47-3.45-1.29-.05-2.53,2.31-1.59,3.73-1.73,1.26-.13,3.1-.21,3,1.51C449.69,368.84,447.47,367.51,446.51,368.1Z"/><path id="Tracé_395" data-name="Tracé 395" class="cls-6" d="M433.22,243.73c1.42.32,3.36-.45,3.41,1.38.07,2.15-2,1.65-3.35,1.67s-3.49.47-3.38-1.63S432.32,244.35,433.22,243.73Z"/><path id="Tracé_396" data-name="Tracé 396" class="cls-6" d="M478.62,247c-1.62-.29-3.82.46-3.8-1.59S477,244,478.35,244s3.08-.44,3.23,1.28C481.8,247.73,479.46,246.42,478.62,247Z"/><path id="Tracé_397" data-name="Tracé 397" class="cls-6" d="M489.59,247.08c-1.26-.37-3.44.66-3.6-1.37s2-1.62,3.32-1.62,3.41-.47,3.4,1.63C492.71,247.59,490.76,246.84,489.59,247.08Z"/><path id="Tracé_398" data-name="Tracé 398" class="cls-6" d="M401.57,475.91c-1.26-.22-3.44.5-3.34-1.61s2.25-1.4,3.58-1.37,3.5-.75,3.42,1.42C405.15,476.17,403,475.84,401.57,475.91Z"/><path id="Tracé_399" data-name="Tracé 399" class="cls-6" d="M412.67,475.84c-1.41-.09-3.4,0-3.17-1.62.33-2.32,2.67-1.19,4.14-1.3,1.17-.08,3.18-.36,2.76,1.66S413.93,475.61,412.67,475.84Z"/><path id="Tracé_400" data-name="Tracé 400" class="cls-6" d="M457.51,475.92c-1.26-.18-3.22.37-3.24-1.33,0-2.57,2.33-1.56,3.72-1.65,1.16-.08,3.19-.6,3.22,1.12C461.22,476.42,458.93,475.66,457.51,475.92Z"/><path id="Tracé_401" data-name="Tracé 401" class="cls-6" d="M469,475.89c-1.45-.17-3.65.28-3.51-1.72s2.37-1.15,3.71-1.22,3.19-.49,3.21,1.3C472.48,476.48,470.3,475.62,469,475.89Z"/><path id="Tracé_402" data-name="Tracé 402" class="cls-6" d="M390.5,475.91c-1.23-.19-3.07.46-3.3-1.32-.28-2.06,1.65-1.68,2.84-1.66,1.35,0,3.48-.68,3.58,1.46C393.7,476.19,391.75,475.76,390.5,475.91Z"/><path id="Tracé_403" data-name="Tracé 403" class="cls-6" d="M424.37,475.91c-1.22-.2-3.16.44-3.26-1.35-.14-2.37,2.06-1.55,3.36-1.63s3.12-.42,3.07,1.49S425.62,475.75,424.37,475.91Z"/><path id="Tracé_404" data-name="Tracé 404" class="cls-6" d="M435.54,475.89c-1.26-.29-3.35.61-3.4-1.66,0-1.55,1.65-1.36,2.73-1.29,1.34.09,3.44-.75,3.67,1.33C438.75,476.17,436.79,475.7,435.54,475.89Z"/><path id="Tracé_405" data-name="Tracé 405" class="cls-6" d="M446.36,472.84c1.47.28,3.47-.29,3.24,1.66s-2.33,1.31-3.7,1.39c-1.12.07-2.76.17-2.73-1.35C443.22,472.12,445.42,473.36,446.36,472.84Z"/><path id="Tracé_406" data-name="Tracé 406" class="cls-6" d="M480.22,475.91c-1.25-.15-3.2.29-3.13-1.51.08-2.16,2.23-1.44,3.57-1.47,1.19,0,3.12-.41,2.86,1.64C483.27,476.37,481.43,475.71,480.22,475.91Z"/><path id="Tracé_407" data-name="Tracé 407" class="cls-6" d="M491.44,475.84c-1.22-.2-3.06.46-3.28-1.32-.25-2,1.67-1.63,2.85-1.61s3.46-.7,3.54,1.45C494.62,476.19,492.67,475.73,491.44,475.84Z"/><path id="Tracé_408" data-name="Tracé 408" class="cls-6" d="M317.76,474.13c-.32,1.55-1.28,1.87-2.29,1.63-1.91-.44-4-.94-4.41-3.28a1.15,1.15,0,0,1,.86-1.38,1.21,1.21,0,0,1,.68,0C314.41,472,316.56,472.48,317.76,474.13Z"/><path id="Tracé_409" data-name="Tracé 409" class="cls-6" d="M309.71,396.78c.28-1.32-.56-3.5,1.5-3.52s1.48,2.11,1.53,3.46.18,3.54-1.6,3.55C309,400.28,310,398,309.71,396.78Z"/><path id="Tracé_410" data-name="Tracé 410" class="cls-6" d="M312.79,430c-.23,1.36.55,3.5-1.58,3.59-1.86.08-1.47-1.92-1.42-3.14s-.78-3.57,1.14-3.81S312.59,428.6,312.79,430Z"/><path id="Tracé_411" data-name="Tracé 411" class="cls-6" d="M309.7,452.69c.37-1.27-.66-3.51,1.69-3.41,1.78.07,1.33,2,1.36,3.26,0,1.46.28,3.64-1.55,3.7C309,456.3,310.08,454,309.7,452.69Z"/><path id="Tracé_412" data-name="Tracé 412" class="cls-6" d="M312.78,418.75c-.1,1.51.19,3.55-1.66,3.66s-1.36-1.9-1.33-3.08c0-1.34-.77-3.5,1.1-3.76C313,415.27,312.59,417.43,312.78,418.75Z"/><path id="Tracé_413" data-name="Tracé 413" class="cls-6" d="M309.66,463.78c.3-1.44-.4-3.46,1.46-3.34s1.66,2.14,1.62,3.58.21,3.52-1.85,3.25S310.33,464.74,309.66,463.78Z"/><path id="Tracé_414" data-name="Tracé 414" class="cls-6" d="M312.78,407.77c-.12,1.47.22,3.5-1.71,3.55s-1.31-2-1.28-3.13c0-1.33-.75-3.5,1.16-3.7S312.6,406.43,312.78,407.77Z"/><path id="Tracé_415" data-name="Tracé 415" class="cls-6" d="M323.14,475.89c-1.24-.2-3.21.28-3-1.62.24-2.07,2.33-1.24,3.68-1.33,1.07-.06,2.76-.27,2.72,1.3C326.49,476.5,324.41,475.6,323.14,475.89Z"/><path id="Tracé_416" data-name="Tracé 416" class="cls-6" d="M334.47,472.84c1.25.19,3.22-.36,3.15,1.48-.09,2.13-2.21,1.49-3.57,1.52s-3.11.32-2.85-1.69C331.43,472.36,333.29,473.09,334.47,472.84Z"/><path id="Tracé_417" data-name="Tracé 417" class="cls-6" d="M312.84,385c-.32,1.51.53,3.58-1.73,3.65-1.58,0-1.39-1.64-1.32-2.72.08-1.35-.75-3.45,1.34-3.7S312.48,384,312.84,385Z"/><path id="Tracé_418" data-name="Tracé 418" class="cls-6" d="M312.79,441.53c-.15,1.31.23,3.25-1.6,3.1-2.11-.17-1.34-2.28-1.4-3.64-.06-1.07-.32-2.75,1.25-2.77C313.37,438.19,312.5,440.29,312.79,441.53Z"/><path id="Tracé_419" data-name="Tracé 419" class="cls-6" d="M570,404c-.27,1.21.51,3.25-1.36,3.21s-1.72-2.11-1.66-3.54-.59-3.59,1.66-3.38C570.65,400.45,569.63,402.67,570,404Z"/><path id="Tracé_420" data-name="Tracé 420" class="cls-6" d="M570,415c-.3,1.43.38,3.49-1.43,3.33-2.15-.2-1.62-2.44-1.65-4,0-1.25-.22-3.19,1.47-3C570.83,411.45,569.41,413.84,570,415Z"/><path id="Tracé_421" data-name="Tracé 421" class="cls-6" d="M570,436.84c-.32,1.32.67,3.55-1.39,3.7-2.22.17-1.58-2.07-1.63-3.42s-.3-3.52,1.7-3.52S569.68,435.63,570,436.84Z"/><path id="Tracé_422" data-name="Tracé 422" class="cls-6" d="M570,459.93c-.29,1.19.52,3.3-1.29,3.24-2.33-.08-1.69-2.42-1.73-4,0-1.25-.27-3.18,1.6-3C570.65,456.47,569.63,458.61,570,459.93Z"/><path id="Tracé_423" data-name="Tracé 423" class="cls-6" d="M570,425.84c-.35,1.27.69,3.54-1.44,3.52-1.8,0-1.6-2.15-1.6-3.6s-.11-3.15,1.44-3.23C570.62,422.42,569.63,424.59,570,425.84Z"/><path id="Tracé_424" data-name="Tracé 424" class="cls-6" d="M570,448.19c-.28,1.42.41,3.4-1.44,3.41-2.22,0-1.57-2.11-1.61-3.45s-.31-3.09,1.62-3S569.57,447.27,570,448.19Z"/><path id="Tracé_425" data-name="Tracé 425" class="cls-6" d="M568.44,467.25c1.5.23,1.49,1.33,1.38,2.29-.19,1.82-.43,3.76-2.74,4.15a1,1,0,0,1-1.14-.84,1,1,0,0,1,0-.46C566.67,470.61,566.52,468.38,568.44,467.25Z"/><path id="Tracé_426" data-name="Tracé 426" class="cls-6" d="M568.76,377.55l1.06.33a6.69,6.69,0,0,1,.08,1.48c-.32,1.79,1,4-1.34,5.25-.24.13-1.11-.3-1.17-.58C566.92,381.7,565.75,379.16,568.76,377.55Z"/><path id="Tracé_427" data-name="Tracé 427" class="cls-6" d="M547.54,472.84c1.22.23,3.14-.38,3,1.58s-2,1.38-3.19,1.38-3.16.45-3.21-1.33C544.1,472.22,546.3,473.21,547.54,472.84Z"/><path id="Tracé_428" data-name="Tracé 428" class="cls-6" d="M558.5,475.91c-1.23-.19-3.07.46-3.3-1.33-.28-2.05,1.65-1.67,2.84-1.65,1.34,0,3.48-.68,3.58,1.46C561.7,476.19,559.75,475.76,558.5,475.91Z"/><path id="Tracé_429" data-name="Tracé 429" class="cls-6" d="M570,392.46c-.22,1.22.42,3.12-1.46,3.17s-1.61-1.8-1.55-3-.61-3.49,1.68-3.37C570.43,389.31,569.71,391.27,570,392.46Z"/><path id="Tracé_430" data-name="Tracé 430" class="cls-6" d="M354.58,421.28c.13-3.29,2-5.19,5.25-5.16a4.78,4.78,0,0,1,5,4.55,3.38,3.38,0,0,1,0,.45c.13,3.36-1.84,5.41-5,5.5S354.71,424.77,354.58,421.28Zm7.19,0c-.22-1-.61-2.07-2.09-2a1.87,1.87,0,0,0-1.77,2v0c0,1.3.6,2.28,2,2.22,1.16-.05,1.69-.91,1.86-2.25Z"/><path id="Tracé_431" data-name="Tracé 431" class="cls-6" d="M354.57,446.22c.17-3.19,1.86-5.26,5.19-5.18s5.16,2.07,5.11,5.4a4.8,4.8,0,0,1-4.51,5.08h-.49C356.69,451.63,354.75,449.72,354.57,446.22Zm7.18.09a2.16,2.16,0,0,0-1.92-2.16,1.58,1.58,0,0,0-1.9,1.18,1.6,1.6,0,0,0,0,.44c-.13,1.45.36,2.64,2,2.67C361,448.46,361.57,447.61,361.75,446.31Z"/><path id="Tracé_432" data-name="Tracé 432" class="cls-6" d="M525.11,446.23c-.25,3.58-2.22,5.45-5.43,5.29a4.82,4.82,0,0,1-4.9-4.74c0-.14,0-.28,0-.42,0-3.33,1.94-5.31,5.2-5.32S525,443.12,525.11,446.23Zm-5.32,2.28a2.11,2.11,0,0,0,2-2.21v0c.06-1.05-.31-2-1.49-2.13a2.21,2.21,0,0,0-.54,4.38Z"/><path id="Tracé_433" data-name="Tracé 433" class="cls-6" d="M525.09,421.25c-.12,3.47-2,5.44-5.24,5.35s-5.16-2.11-5.05-5.47a4.77,4.77,0,0,1,4.53-5h.47C523,416.07,524.94,418,525.09,421.25Zm-5.2,2.3a2,2,0,0,0,1.89-2.1,1.65,1.65,0,0,0,0-.32,1.81,1.81,0,0,0-1.77-1.85h-.13a1.9,1.9,0,0,0-1.92,1.88,2.51,2.51,0,0,0,2,2.39Z"/><path id="Tracé_434" data-name="Tracé 434" class="cls-6" d="M437.35,387.93c2.8-2.41,5.62-2.11,8.45,0,1.84,3.6,1.84,7-2.31,8.69-3.24,1.35-5.76-.12-7.09-3.46C435.63,391.16,436.62,389.58,437.35,387.93Zm6.51,3.58c-.14-1.15-.68-2.17-2-2.22a2.38,2.38,0,0,0-2.58,2.16,1.62,1.62,0,0,0,0,.22c-.06,1.55,1.07,2.29,2.6,2.21s1.94-.94,2-2.37Z"/><path id="Tracé_435" data-name="Tracé 435" class="cls-3" d="M393.09,387h1.71a6.21,6.21,0,0,1,.15,1.92c-.5,2,1.25,5.69-.37,5.55-3.06-.28-1.25-3.86-1.67-6A4.56,4.56,0,0,1,393.09,387Z"/><path id="Tracé_436" data-name="Tracé 436" class="cls-3" d="M416.85,401.22c.06,1.13-.71,1.45-1.55,1.5-1.11.07-2.53.47-3.1-.82s.68-1.63,1.64-1.71C415,400.09,416.22,399.9,416.85,401.22Z"/><path id="Tracé_437" data-name="Tracé 437" class="cls-3" d="M445.81,401.62c.17-1.35,1.19-1.46,2.19-1.46s2.56-.21,2.64,1.42c.05.94-1,1.18-1.87,1.18C447.65,402.76,446.39,403,445.81,401.62Z"/><path id="Tracé_438" data-name="Tracé 438" class="cls-3" d="M456.48,402.84c-1-.08-2.32.1-2.38-1.17-.08-1.67,1.46-1.44,2.55-1.46s2.25.13,2.18,1.38S457.49,402.75,456.48,402.84Z"/><path id="Tracé_439" data-name="Tracé 439" class="cls-3" d="M408.71,401.6c-.56,1.43-1.82,1.16-2.94,1.16-.86,0-1.92-.22-1.89-1.16.05-1.64,1.51-1.43,2.62-1.44S408.53,400.25,408.71,401.6Z"/><path id="Tracé_440" data-name="Tracé 440" class="cls-9" d="M394.86,413.6c2.4-1.51,3,.62,3.35,2.28-.31,1.14-.26,3.27-2,2.74C394,418,395.08,415.25,394.86,413.6Z"/><path id="Tracé_441" data-name="Tracé 441" class="cls-9" d="M481.43,415.7a2.68,2.68,0,0,1,3.46-.74v.74c-.14,1.51.58,3.85-1.5,4C481,419.89,481.93,417.06,481.43,415.7Z"/><path id="Tracé_442" data-name="Tracé 442" class="cls-6" d="M519.84,327.68c3.18.16,5.08,1.7,5.17,4.88.1,3.37-1.63,5.38-5.07,5.37s-5.2-2-5.12-5.33S516.81,327.89,519.84,327.68Zm0,2.84c-1,.21-2,.6-2.09,2a2.24,2.24,0,0,0,4.47.32c0-1.39-.84-2.11-2.41-2.32Z"/><path id="Tracé_443" data-name="Tracé 443" class="cls-6" d="M359.37,338c-3.34-.47-5-2.43-4.69-5.77s2.32-4.68,5.4-4.51,4.85,2,4.78,5.18C364.78,336.36,362.71,337.9,359.37,338Zm2.59-5.39a2,2,0,0,0-2-2l-.3,0a2.07,2.07,0,0,0-2.16,2.63,2,2,0,0,0,2.12,1.87,2.2,2.2,0,0,0,.37-.06,2.11,2.11,0,0,0,2-2.22Z"/><path id="Tracé_444" data-name="Tracé 444" class="cls-7" d="M566.33,153a3.49,3.49,0,0,1-3.64-1.91c-1.74-4.61-5.73-7.2-8.83-10.58-1.32-1.44-2.61-2.7-.55-4.53,1.88-1.65,3.22-.66,4.73.65,9.23,8,9.25,7.94,16.42-2.09q2.76-3.84,5.43-7.68c.79-1.15,1.75-2.4,3.17-1.4s.39,2.51-.3,3.53c-2.15,3.14-4.46,6.17-6.67,9.26s-4.65,6-4.34,10.25C572,151.45,569.94,152.84,566.33,153Z"/><path id="Tracé_445" data-name="Tracé 445" class="cls-7" d="M607,150c-1.69-.7-5,1.21-4.87-2.28.08-2.92,3.08-1.76,4.78-1.77,1.93,0,5.18-1.08,5.25,1.87S608.94,149.5,607,150Z"/><path id="Tracé_446" data-name="Tracé 446" class="cls-7" d="M568,107.45a31.63,31.63,0,0,1-.37,3.51c-.17.84-.89,1.73-1.7,1.43-3.55-1.33-1.66-4.46-2-6.81-.21-1.52-.33-3.9,2.16-3.42C569.22,102.77,567.22,105.72,568,107.45Z"/><path id="Tracé_447" data-name="Tracé 447" class="cls-7" d="M568,189.38a26.81,26.81,0,0,1-.37,3.58c-.24,1-1.2,2-2.15,1.42-2.75-1.6-1.32-4.43-1.54-6.74-.14-1.37-.39-3.56,1.66-3.47C569.44,184.35,567.08,187.72,568,189.38Z"/><path id="Tracé_448" data-name="Tracé 448" class="cls-7" d="M524.79,150c-1.67-.54-4.68,1-4.66-2,0-3.37,3.19-1.92,5-2s4.63-1.06,4.42,2.09C529.37,151.05,526.47,149.46,524.79,150Z"/><path id="Tracé_449" data-name="Tracé 449" class="cls-7" d="M291.88,163.78a23.62,23.62,0,0,1-1.79,2.33q-7.87,7.95-15.87,15.85c-.75.74-1.56,2.26-2.81,1.22s-.18-2.14.64-3q8.42-8.49,16.9-16.93c.59-.59,1.24-1.25,2.14-.88C291.44,162.55,291.56,163.19,291.88,163.78Z"/><path id="Tracé_450" data-name="Tracé 450" class="cls-7" d="M289.07,181.58c-1.66-.7-1.31-1.9-.48-2.74,5.32-5.44,10.72-10.79,16.11-16.15a1.74,1.74,0,0,1,2.25-.41c1,.66.43,1.51-.14,2.08q-8.19,8.28-16.47,16.48A5.77,5.77,0,0,1,289.07,181.58Z"/><path id="Tracé_451" data-name="Tracé 451" class="cls-7" d="M283.66,186.33c.21,1.74-7,8.77-8.49,8.39-1.16-.32-1.18-1.21-.56-1.86,2.38-2.49,4.82-5,7.36-7.27C282.71,184.91,283.48,185.43,283.66,186.33Z"/><path id="Tracé_452" data-name="Tracé 452" class="cls-7" d="M358.86,127.59c-1.6-.43-2.41-1.51-1.15-2.83,4-4.2,8.21-8.25,12.39-12.3a1.47,1.47,0,0,1,2.09,0l.14.15a1.65,1.65,0,0,1-.11,2.26c-4.08,4.15-8.21,8.26-12.34,12.36A3.71,3.71,0,0,1,358.86,127.59Z"/><path id="Tracé_453" data-name="Tracé 453" class="cls-7" d="M373.32,129.59a12.61,12.61,0,0,1-1.21,1.52q-6.5,6.55-13,13c-.92.9-2.07,2.41-3.32,1.31-1.5-1.34.39-2.3,1.18-3.11,4.3-4.4,8.67-8.73,13-13.06.71-.7,1.45-1.44,2.58-1.2C373,128.21,373.51,128.43,373.32,129.59Z"/><path id="Tracé_454" data-name="Tracé 454" class="cls-7" d="M378.12,124.5a1,1,0,0,1-1.12-.89,1.2,1.2,0,0,1,0-.38,11.73,11.73,0,0,1,5.93-6.1,1,1,0,0,1,1.33.47.9.9,0,0,1,.1.39C384.55,118.92,379.15,124.53,378.12,124.5Z"/><path id="Tracé_455" data-name="Tracé 455" class="cls-1" d="M427.73,324c-2.51-7.87-1.8-9.13,6-11a32.85,32.85,0,0,1,17.1.4c6.52,1.91,6.94,2.72,4.93,9.54-1.18.9-1.48,2.75-3.24,3,.54-2.84,2.15-5.69-.36-8.44-3.2-3.52-15.49-3.65-19.34.24,4.77-.25,9.15-1.42,13.57-.38,4.8,1.14,5.56,2.58,4.1,7.36-.62,2-3.12,3.66-1.59,6.25-5.93,7.33-7.93,7.4-14.4,1.23C431.87,329.72,430.84,326,427.73,324Z"/><path id="Tracé_456" data-name="Tracé 456" class="cls-8" d="M427.73,324c3.11,2,4.14,5.77,6.77,8.27,6.47,6.17,8.47,6.1,14.4-1.23,2.37-.83,2.19-3.51,3.62-5,1.76-.28,2.06-2.13,3.24-3-1.31,7.78-5.77,13.54-11.68,18.41-1.69,1.38-3.25,1.43-4.91.07C433.55,336.78,429.08,331.38,427.73,324Z"/><path id="Tracé_457" data-name="Tracé 457" class="cls-9" d="M361.77,421.25c-.17,1.34-.7,2.2-1.83,2.24-1.43.06-2.06-.92-2-2.22a1.88,1.88,0,0,1,1.73-2h0C361.16,419.18,361.55,420.29,361.77,421.25Z"/><path id="Tracé_458" data-name="Tracé 458" class="cls-9" d="M361.75,446.31c-.18,1.3-.74,2.15-1.84,2.13-1.66,0-2.15-1.22-2-2.67a1.58,1.58,0,0,1,1.94-1.62A2.16,2.16,0,0,1,361.75,446.31Z"/><path id="Tracé_459" data-name="Tracé 459" class="cls-9" d="M519.79,448.51a2.21,2.21,0,0,1,.54-4.38c1.18.11,1.55,1.08,1.49,2.13a2.11,2.11,0,0,1-2,2.25Z"/><path id="Tracé_460" data-name="Tracé 460" class="cls-9" d="M519.89,423.55a2,2,0,0,1-1.91-1.9c-.11-1.31.46-2.3,1.86-2.37a1.81,1.81,0,0,1,1.9,1.72v.13a2,2,0,0,1-1.53,2.38l-.32,0Z"/><path id="Tracé_461" data-name="Tracé 461" class="cls-3" d="M443.86,391.51c0,1.43-.64,2.3-2,2.37s-2.66-.66-2.6-2.21a2.39,2.39,0,0,1,2.37-2.39h.22C443.22,389.34,443.72,390.36,443.86,391.51Z"/><path id="Tracé_462" data-name="Tracé 462" class="cls-10" d="M519.81,330.52c1.57.21,2.39.93,2.36,2.28a2.23,2.23,0,1,1-4.46,0c0-.06,0-.13,0-.19C517.79,331.12,518.84,330.73,519.81,330.52Z"/><path id="Tracé_463" data-name="Tracé 463" class="cls-10" d="M362,332.64a2.09,2.09,0,0,1-1.77,2.37l-.23,0a2,2,0,0,1-2.43-1.44,2.38,2.38,0,0,1-.06-.37,2.08,2.08,0,0,1,1.42-2.56,2.05,2.05,0,0,1,.74-.07,2,2,0,0,1,2.3,1.64A1.42,1.42,0,0,1,362,332.64Z"/><path id="Tracé_464" data-name="Tracé 464" class="cls-6" d="M452.52,326c-1.43,1.52-1.25,4.2-3.62,5-1.53-2.59,1-4.21,1.59-6.25,1.46-4.78.7-6.22-4.1-7.36-4.42-1-8.8.13-13.57.38,3.85-3.89,16.14-3.76,19.34-.24C454.67,320.27,453.06,323.12,452.52,326Z"/><path id="Tracé_465" data-name="Tracé 465" class="cls-6" d="M374.84,232.75H385l22.65-25.34L422,198.25l19.8-3.5,12,1.29,11.5,6.11s7.83,5,8.5,5.78,12.44,12.5,12.44,12.5,5.72,9.64,6.06,10.31a17.45,17.45,0,0,0,2.5,2.51l9.16,1.16,1.84-3.48-10-11.94s-6.55-3.87-8.44-6.56-4.52-5-6.54-8.49-7.66-7.44-8-7.49a82.69,82.69,0,0,1-11.64-4.82c-3.17-1.88,2.5-1.72-9.83-3.55s-11.5-2.83-16.17-1.83-11,1.83-11,1.83-3.17-.41-7.5,3.55-4.13,4.12-7,6.62-3.06,3.92-7.29,7-7.29,5-9,6.69-2.91,2-5.56,5.51-2.66,4.69-6,7.51-5.33,3.82-6.16,5.82Z"/></svg>